<svg width="22" height="21" viewBox="0 0 22 21" fill="none" xmlns="http://www.w3.org/2000/svg">
<mask id="mask0_1174_1261" style="mask-type:alpha" maskUnits="userSpaceOnUse" x="1" y="1" width="20" height="19">
<path d="M11.8263 2.02647C11.5645 1.44135 11.4336 1.1488 11.2513 1.05871C11.0929 0.980432 10.907 0.980432 10.7487 1.05871C10.5664 1.1488 10.4354 1.44135 10.1736 2.02647L8.08828 6.68699C8.01081 6.85996 7.97213 6.94644 7.9122 7.01267C7.85927 7.07128 7.79447 7.11815 7.72221 7.15024C7.64044 7.18651 7.5459 7.19645 7.35682 7.21632L2.26293 7.7519C1.62341 7.81914 1.30371 7.85275 1.16133 7.99762C1.03772 8.12344 0.980274 8.29964 1.00606 8.47385C1.03569 8.67438 1.27453 8.88876 1.75222 9.31765L5.55734 12.7336C5.69847 12.8604 5.76916 12.9238 5.81383 13.0009C5.85341 13.0693 5.87817 13.1451 5.88643 13.2236C5.89581 13.3122 5.87614 13.4048 5.83667 13.5901L4.77385 18.5816C4.64041 19.2083 4.57369 19.5216 4.668 19.7012C4.74999 19.8573 4.9004 19.9662 5.07467 19.9956C5.27529 20.0294 5.55383 19.8694 6.11091 19.5493L10.548 16.9999C10.7126 16.9053 10.795 16.8581 10.8825 16.8395C10.96 16.8232 11.04 16.8232 11.1175 16.8395C11.205 16.8581 11.2873 16.9053 11.452 16.9999L15.889 19.5493C16.4461 19.8694 16.7246 20.0294 16.9253 19.9956C17.0995 19.9662 17.25 19.8573 17.3319 19.7012C17.4262 19.5216 17.3595 19.2083 17.2261 18.5816L16.1633 13.5901C16.1239 13.4048 16.1041 13.3122 16.1135 13.2236C16.1218 13.1451 16.1465 13.0693 16.1861 13.0009C16.2308 12.9238 16.3014 12.8604 16.4427 12.7336L20.2477 9.31765C20.7254 8.88876 20.9642 8.67438 20.9939 8.47385C21.0197 8.29964 20.9623 8.12344 20.8386 7.99762C20.6963 7.85275 20.3765 7.81914 19.737 7.7519L14.6431 7.21632C14.454 7.19645 14.3595 7.18651 14.2778 7.15024C14.2055 7.11815 14.1407 7.07128 14.0877 7.01267C14.0278 6.94644 13.9891 6.85996 13.9117 6.68699L11.8263 2.02647Z" fill="#D9D9D9"/>
</mask>
<g mask="url(#mask0_1174_1261)">
<rect width="12.1" height="21" transform="matrix(-1 0 0 1 11.1 1)" fill="#09A350"/>
</g>
<path d="M10.1737 2.03041C10.4355 1.44305 10.5664 1.14937 10.7487 1.05893C10.9071 0.980356 11.093 0.980356 11.2513 1.05893C11.4336 1.14937 11.5646 1.44305 11.8264 2.03041L13.9117 6.70884C13.9892 6.88248 14.0279 6.9693 14.0878 7.03578C14.1407 7.09461 14.2055 7.14167 14.2778 7.17388C14.3596 7.21029 14.4541 7.22027 14.6432 7.24021L19.7371 7.77785C20.3766 7.84534 20.6963 7.87909 20.8387 8.02451C20.9623 8.15082 21.0197 8.32769 20.9939 8.50257C20.9643 8.70387 20.7255 8.91908 20.2478 9.34961L16.4427 12.7787C16.3015 12.9059 16.2308 12.9696 16.1862 13.0471C16.1466 13.1157 16.1218 13.1918 16.1136 13.2705C16.1042 13.3595 16.1239 13.4525 16.1633 13.6385L17.2261 18.6492C17.3596 19.2783 17.4263 19.5928 17.332 19.7731C17.25 19.9298 17.0996 20.039 16.9253 20.0686C16.7247 20.1025 16.4462 19.9419 15.8891 19.6206L11.452 17.0614C11.2874 16.9664 11.205 16.919 11.1175 16.9004C11.04 16.884 10.96 16.884 10.8825 16.9004C10.795 16.919 10.7127 16.9664 10.548 17.0614L6.11095 19.6206C5.5539 19.9419 5.27537 20.1025 5.07474 20.0686C4.90046 20.039 4.75 19.9298 4.66808 19.7731C4.57378 19.5928 4.64049 19.2783 4.77392 18.6492L5.83669 13.6385C5.87614 13.4525 5.89586 13.3595 5.88649 13.2705C5.8782 13.1918 5.85347 13.1157 5.81389 13.0471C5.76916 12.9696 5.69855 12.9059 5.55734 12.7787L1.75231 9.34961C1.27461 8.91908 1.03575 8.70387 1.00605 8.50257C0.98027 8.32769 1.03773 8.15082 1.16138 8.02451C1.30374 7.87909 1.6235 7.84534 2.26302 7.77785L7.35689 7.24021C7.54596 7.22027 7.64048 7.21029 7.72222 7.17388C7.79454 7.14167 7.85929 7.09461 7.91229 7.03578C7.97217 6.9693 8.01087 6.88248 8.08828 6.70884L10.1737 2.03041Z" stroke="#09A350" stroke-linecap="round" stroke-linejoin="round"/>
</svg>
