<svg width="22" height="21" viewBox="0 0 22 21" fill="none" xmlns="http://www.w3.org/2000/svg">
<path d="M10.1737 2.03041C10.4355 1.44305 10.5664 1.14937 10.7487 1.05893C10.9071 0.980356 11.093 0.980356 11.2513 1.05893C11.4336 1.14937 11.5646 1.44305 11.8264 2.03041L13.9117 6.70884C13.9892 6.88248 14.0279 6.9693 14.0878 7.03578C14.1407 7.09461 14.2055 7.14167 14.2778 7.17388C14.3596 7.21029 14.4541 7.22027 14.6432 7.24021L19.7371 7.77785C20.3766 7.84534 20.6963 7.87909 20.8387 8.02451C20.9623 8.15082 21.0197 8.32769 20.9939 8.50258C20.9643 8.70387 20.7255 8.91908 20.2478 9.34961L16.4427 12.7787C16.3015 12.9059 16.2308 12.9696 16.1862 13.0471C16.1466 13.1157 16.1218 13.1918 16.1136 13.2705C16.1042 13.3595 16.1239 13.4525 16.1633 13.6385L17.2261 18.6492C17.3596 19.2783 17.4263 19.5928 17.332 19.7731C17.25 19.9298 17.0996 20.039 16.9253 20.0686C16.7247 20.1025 16.4462 19.9419 15.8891 19.6206L11.452 17.0614C11.2874 16.9664 11.205 16.919 11.1175 16.9004C11.04 16.884 10.96 16.884 10.8825 16.9004C10.795 16.919 10.7127 16.9664 10.548 17.0614L6.11095 19.6206C5.5539 19.9419 5.27537 20.1025 5.07474 20.0686C4.90046 20.039 4.75 19.9298 4.66808 19.7731C4.57378 19.5928 4.64049 19.2783 4.77392 18.6492L5.83669 13.6385C5.87614 13.4525 5.89586 13.3595 5.88649 13.2705C5.8782 13.1918 5.85347 13.1157 5.81389 13.0471C5.76916 12.9696 5.69855 12.9059 5.55734 12.7787L1.75231 9.34961C1.27461 8.91908 1.03575 8.70387 1.00605 8.50258C0.98027 8.32769 1.03773 8.15082 1.16138 8.02451C1.30374 7.87909 1.6235 7.84534 2.26302 7.77785L7.35689 7.24021C7.54596 7.22027 7.64048 7.21029 7.72222 7.17388C7.79454 7.14167 7.85929 7.09461 7.91229 7.03578C7.97217 6.9693 8.01087 6.88248 8.08828 6.70884L10.1737 2.03041Z" stroke="#09A350" stroke-linecap="round" stroke-linejoin="round"/>
</svg>
