<svg width="20" height="20" viewBox="0 0 20 20" fill="none" xmlns="http://www.w3.org/2000/svg">
<path d="M9.17367 1.03041C9.43547 0.44305 9.56643 0.149368 9.74873 0.0589309C9.90705 -0.0196436 10.093 -0.0196436 10.2513 0.0589309C10.4336 0.149368 10.5646 0.44305 10.8264 1.03041L12.9117 5.70884C12.9892 5.88248 13.0279 5.9693 13.0878 6.03578C13.1407 6.09461 13.2055 6.14167 13.2778 6.17388C13.3596 6.21029 13.4541 6.22027 13.6432 6.24021L18.7371 6.77785C19.3766 6.84534 19.6963 6.87909 19.8387 7.02451C19.9623 7.15082 20.0197 7.32769 19.9939 7.50257C19.9643 7.70387 19.7255 7.91908 19.2478 8.34961L15.4427 11.7787C15.3015 11.9059 15.2308 11.9696 15.1862 12.0471C15.1466 12.1157 15.1218 12.1918 15.1136 12.2705C15.1042 12.3595 15.1239 12.4525 15.1633 12.6385L16.2261 17.6492C16.3596 18.2783 16.4263 18.5928 16.332 18.7731C16.25 18.9298 16.0996 19.039 15.9253 19.0686C15.7247 19.1025 15.4462 18.9419 14.8891 18.6206L10.452 16.0614C10.2874 15.9664 10.205 15.919 10.1175 15.9004C10.04 15.884 9.95998 15.884 9.88251 15.9004C9.79498 15.919 9.71265 15.9664 9.54799 16.0614L5.11095 18.6206C4.5539 18.9419 4.27537 19.1025 4.07474 19.0686C3.90046 19.039 3.75 18.9298 3.66808 18.7731C3.57378 18.5928 3.64049 18.2783 3.77392 17.6492L4.83669 12.6385C4.87613 12.4525 4.89586 12.3595 4.88649 12.2705C4.8782 12.1918 4.85347 12.1157 4.81389 12.0471C4.76916 11.9696 4.69855 11.9059 4.55734 11.7787L0.752309 8.34961C0.274608 7.91908 0.035752 7.70387 0.00605475 7.50257C-0.0197296 7.32769 0.0377312 7.15082 0.161383 7.02451C0.30374 6.87909 0.6235 6.84534 1.26302 6.77785L6.35689 6.24021C6.54596 6.22027 6.64048 6.21029 6.72222 6.17388C6.79454 6.14167 6.85929 6.09461 6.91229 6.03578C6.97217 5.9693 7.01087 5.88248 7.08828 5.70884L9.17367 1.03041Z" fill="#09A350"/>
</svg>
