<svg width="24" height="24" viewBox="0 0 24 24" fill="none" xmlns="http://www.w3.org/2000/svg">
<path d="M7.77189 2.43881L8.84789 2.09481C9.85789 1.77281 10.9349 2.29381 11.3679 3.31181L12.2269 5.33981C12.6009 6.22281 12.3939 7.26181 11.7129 7.90781L9.81889 9.70581C9.93489 10.7818 10.2969 11.8408 10.9029 12.8828C11.4787 13.891 12.2509 14.7734 13.1739 15.4778L15.4489 14.7178C16.3119 14.4308 17.2509 14.7618 17.7789 15.5388L19.0119 17.3488C19.6269 18.2528 19.5169 19.4988 18.7539 20.2648L17.9359 21.0858C17.1219 21.9028 15.9589 22.1998 14.8839 21.8638C12.3449 21.0718 10.0109 18.7208 7.88089 14.8108C5.74789 10.8948 4.99489 7.57081 5.62289 4.84281C5.88689 3.69481 6.70389 2.77981 7.77189 2.43881Z" fill="#707991"/>
</svg>
