<svg width="14" height="14" viewBox="0 0 14 14" fill="none" xmlns="http://www.w3.org/2000/svg">
<path d="M4.95825 9.67581L2.74566 7.46323C2.63564 7.35697 2.48829 7.29817 2.33534 7.2995C2.1824 7.30083 2.03609 7.36218 1.92793 7.47033C1.81978 7.57849 1.75843 7.7248 1.7571 7.87774C1.75577 8.03069 1.81457 8.17804 1.92083 8.28806L4.54583 10.9131C4.65522 11.0224 4.80357 11.0839 4.95825 11.0839C5.11292 11.0839 5.26127 11.0224 5.37066 10.9131L11.7873 4.49639C11.8936 4.38638 11.9524 4.23903 11.9511 4.08608C11.9497 3.93313 11.8884 3.78682 11.7802 3.67867C11.6721 3.57051 11.5258 3.50916 11.3728 3.50783C11.2199 3.50651 11.0725 3.5653 10.9625 3.67156L4.95825 9.67581Z" fill="white"/>
</svg>
