<svg width="656" height="89" viewBox="0 0 656 89" fill="none" xmlns="http://www.w3.org/2000/svg">
<rect x="0.5" y="0.5" width="655" height="88" rx="10.5" fill="white" stroke="#DDDDDD"/>
<path d="M45.5 62.25C48.1667 61.4166 52.9 58.85 50.5 55.25C50.1069 54.7727 49.6164 54.2546 49.0513 53.75M49.0513 53.75C46.2624 51.2591 41.6587 49.0934 38 53.75C39.8676 56.0833 44.6924 59.35 49.0513 53.75ZM44.5 50.75C43.6667 48.25 40.2 43.55 33 44.75C33.6667 47.4167 36.9 52.35 44.5 50.75ZM41 45.75C41.6667 42.5833 41.2 36.15 34 35.75C33.5 38.4167 34.2 44.15 41 45.75ZM40.5 38.75C43 37.0833 46.5 32.55 40.5 27.75C38.5 29.5833 35.7 34.35 40.5 38.75Z" stroke="#09A350"/>
<path d="M86.0456 33.09C85.7216 32.466 85.2716 31.998 84.6956 31.686C84.1196 31.362 83.4536 31.2 82.6976 31.2C81.8696 31.2 81.1316 31.386 80.4836 31.758C79.8356 32.13 79.3256 32.658 78.9536 33.342C78.5936 34.026 78.4136 34.818 78.4136 35.718C78.4136 36.618 78.5936 37.416 78.9536 38.112C79.3256 38.796 79.8356 39.324 80.4836 39.696C81.1316 40.068 81.8696 40.254 82.6976 40.254C83.8136 40.254 84.7196 39.942 85.4156 39.318C86.1116 38.694 86.5376 37.848 86.6936 36.78H81.9956V35.142H88.8896V36.744C88.7576 37.716 88.4096 38.61 87.8456 39.426C87.2936 40.242 86.5676 40.896 85.6676 41.388C84.7796 41.868 83.7896 42.108 82.6976 42.108C81.5216 42.108 80.4476 41.838 79.4756 41.298C78.5036 40.746 77.7296 39.984 77.1536 39.012C76.5896 38.04 76.3076 36.942 76.3076 35.718C76.3076 34.494 76.5896 33.396 77.1536 32.424C77.7296 31.452 78.5036 30.696 79.4756 30.156C80.4596 29.604 81.5336 29.328 82.6976 29.328C84.0296 29.328 85.2116 29.658 86.2436 30.318C87.2876 30.966 88.0436 31.89 88.5116 33.09H86.0456ZM99.8955 32.082V42H97.8435V40.83C97.5195 41.238 97.0935 41.562 96.5655 41.802C96.0495 42.03 95.4975 42.144 94.9095 42.144C94.1295 42.144 93.4275 41.982 92.8035 41.658C92.1915 41.334 91.7055 40.854 91.3455 40.218C90.9975 39.582 90.8235 38.814 90.8235 37.914V32.082H92.8575V37.608C92.8575 38.496 93.0795 39.18 93.5235 39.66C93.9675 40.128 94.5735 40.362 95.3415 40.362C96.1095 40.362 96.7155 40.128 97.1595 39.66C97.6155 39.18 97.8435 38.496 97.8435 37.608V32.082H99.8955ZM111.693 36.798C111.693 37.17 111.669 37.506 111.621 37.806H104.043C104.103 38.598 104.397 39.234 104.925 39.714C105.453 40.194 106.101 40.434 106.869 40.434C107.973 40.434 108.753 39.972 109.209 39.048H111.423C111.123 39.96 110.577 40.71 109.785 41.298C109.005 41.874 108.033 42.162 106.869 42.162C105.921 42.162 105.069 41.952 104.313 41.532C103.569 41.1 102.981 40.5 102.549 39.732C102.129 38.952 101.919 38.052 101.919 37.032C101.919 36.012 102.123 35.118 102.531 34.35C102.951 33.57 103.533 32.97 104.277 32.55C105.033 32.13 105.897 31.92 106.869 31.92C107.805 31.92 108.639 32.124 109.371 32.532C110.103 32.94 110.673 33.516 111.081 34.26C111.489 34.992 111.693 35.838 111.693 36.798ZM109.551 36.15C109.539 35.394 109.269 34.788 108.741 34.332C108.213 33.876 107.559 33.648 106.779 33.648C106.071 33.648 105.465 33.876 104.961 34.332C104.457 34.776 104.157 35.382 104.061 36.15H109.551ZM117.312 42.162C116.532 42.162 115.83 42.024 115.206 41.748C114.594 41.46 114.108 41.076 113.748 40.596C113.388 40.104 113.196 39.558 113.172 38.958H115.296C115.332 39.378 115.53 39.732 115.89 40.02C116.262 40.296 116.724 40.434 117.276 40.434C117.852 40.434 118.296 40.326 118.608 40.11C118.932 39.882 119.094 39.594 119.094 39.246C119.094 38.874 118.914 38.598 118.554 38.418C118.206 38.238 117.648 38.04 116.88 37.824C116.136 37.62 115.53 37.422 115.062 37.23C114.594 37.038 114.186 36.744 113.838 36.348C113.502 35.952 113.334 35.43 113.334 34.782C113.334 34.254 113.49 33.774 113.802 33.342C114.114 32.898 114.558 32.55 115.134 32.298C115.722 32.046 116.394 31.92 117.15 31.92C118.278 31.92 119.184 32.208 119.868 32.784C120.564 33.348 120.936 34.122 120.984 35.106H118.932C118.896 34.662 118.716 34.308 118.392 34.044C118.068 33.78 117.63 33.648 117.078 33.648C116.538 33.648 116.124 33.75 115.836 33.954C115.548 34.158 115.404 34.428 115.404 34.764C115.404 35.028 115.5 35.25 115.692 35.43C115.884 35.61 116.118 35.754 116.394 35.862C116.67 35.958 117.078 36.084 117.618 36.24C118.338 36.432 118.926 36.63 119.382 36.834C119.85 37.026 120.252 37.314 120.588 37.698C120.924 38.082 121.098 38.592 121.11 39.228C121.11 39.792 120.954 40.296 120.642 40.74C120.33 41.184 119.886 41.532 119.31 41.784C118.746 42.036 118.08 42.162 117.312 42.162ZM125.722 33.756V39.246C125.722 39.618 125.806 39.888 125.974 40.056C126.154 40.212 126.454 40.29 126.874 40.29H128.134V42H126.514C125.59 42 124.882 41.784 124.39 41.352C123.898 40.92 123.652 40.218 123.652 39.246V33.756H122.482V32.082H123.652V29.616H125.722V32.082H128.134V33.756H125.722Z" fill="#09A350"/>
<path d="M67.0783 52.756H65.2423V61H63.1723V52.756H62.0023V51.082H63.1723V50.38C63.1723 49.24 63.4723 48.412 64.0723 47.896C64.6843 47.368 65.6383 47.104 66.9343 47.104V48.814C66.3103 48.814 65.8723 48.934 65.6203 49.174C65.3683 49.402 65.2423 49.804 65.2423 50.38V51.082H67.0783V52.756ZM68.2129 55.996C68.2129 55 68.4169 54.118 68.8249 53.35C69.2449 52.582 69.8089 51.988 70.5169 51.568C71.2369 51.136 72.0289 50.92 72.8929 50.92C73.6729 50.92 74.3509 51.076 74.9269 51.388C75.5149 51.688 75.9829 52.066 76.3309 52.522V51.082H78.4009V61H76.3309V59.524C75.9829 59.992 75.5089 60.382 74.9089 60.694C74.3089 61.006 73.6249 61.162 72.8569 61.162C72.0049 61.162 71.2249 60.946 70.5169 60.514C69.8089 60.07 69.2449 59.458 68.8249 58.678C68.4169 57.886 68.2129 56.992 68.2129 55.996ZM76.3309 56.032C76.3309 55.348 76.1869 54.754 75.8989 54.25C75.6229 53.746 75.2569 53.362 74.8009 53.098C74.3449 52.834 73.8529 52.702 73.3249 52.702C72.7969 52.702 72.3049 52.834 71.8489 53.098C71.3929 53.35 71.0209 53.728 70.7329 54.232C70.4569 54.724 70.3189 55.312 70.3189 55.996C70.3189 56.68 70.4569 57.28 70.7329 57.796C71.0209 58.312 71.3929 58.708 71.8489 58.984C72.3169 59.248 72.8089 59.38 73.3249 59.38C73.8529 59.38 74.3449 59.248 74.8009 58.984C75.2569 58.72 75.6229 58.336 75.8989 57.832C76.1869 57.316 76.3309 56.716 76.3309 56.032ZM84.9301 59.164L87.7381 51.082H89.9161L86.1361 61H83.6881L79.9261 51.082H82.1221L84.9301 59.164ZM95.7692 61.162C94.8332 61.162 93.9872 60.952 93.2312 60.532C92.4752 60.1 91.8812 59.5 91.4492 58.732C91.0172 57.952 90.8012 57.052 90.8012 56.032C90.8012 55.024 91.0232 54.13 91.4672 53.35C91.9112 52.57 92.5172 51.97 93.2852 51.55C94.0532 51.13 94.9112 50.92 95.8592 50.92C96.8072 50.92 97.6652 51.13 98.4332 51.55C99.2012 51.97 99.8072 52.57 100.251 53.35C100.695 54.13 100.917 55.024 100.917 56.032C100.917 57.04 100.689 57.934 100.233 58.714C99.7772 59.494 99.1532 60.1 98.3612 60.532C97.5812 60.952 96.7172 61.162 95.7692 61.162ZM95.7692 59.38C96.2972 59.38 96.7892 59.254 97.2452 59.002C97.7132 58.75 98.0912 58.372 98.3792 57.868C98.6672 57.364 98.8112 56.752 98.8112 56.032C98.8112 55.312 98.6732 54.706 98.3972 54.214C98.1212 53.71 97.7552 53.332 97.2992 53.08C96.8432 52.828 96.3512 52.702 95.8232 52.702C95.2952 52.702 94.8032 52.828 94.3472 53.08C93.9032 53.332 93.5492 53.71 93.2852 54.214C93.0212 54.706 92.8892 55.312 92.8892 56.032C92.8892 57.1 93.1592 57.928 93.6992 58.516C94.2512 59.092 94.9412 59.38 95.7692 59.38ZM111.928 51.082V61H109.876V59.83C109.552 60.238 109.126 60.562 108.598 60.802C108.082 61.03 107.53 61.144 106.942 61.144C106.162 61.144 105.46 60.982 104.836 60.658C104.224 60.334 103.738 59.854 103.378 59.218C103.03 58.582 102.856 57.814 102.856 56.914V51.082H104.89V56.608C104.89 57.496 105.112 58.18 105.556 58.66C106 59.128 106.606 59.362 107.374 59.362C108.142 59.362 108.748 59.128 109.192 58.66C109.648 58.18 109.876 57.496 109.876 56.608V51.082H111.928ZM116.687 52.522C116.987 52.018 117.383 51.628 117.875 51.352C118.379 51.064 118.973 50.92 119.657 50.92V53.044H119.135C118.331 53.044 117.719 53.248 117.299 53.656C116.891 54.064 116.687 54.772 116.687 55.78V61H114.635V51.082H116.687V52.522ZM122.587 49.768C122.215 49.768 121.903 49.642 121.651 49.39C121.399 49.138 121.273 48.826 121.273 48.454C121.273 48.082 121.399 47.77 121.651 47.518C121.903 47.266 122.215 47.14 122.587 47.14C122.947 47.14 123.253 47.266 123.505 47.518C123.757 47.77 123.883 48.082 123.883 48.454C123.883 48.826 123.757 49.138 123.505 49.39C123.253 49.642 122.947 49.768 122.587 49.768ZM123.595 51.082V61H121.543V51.082H123.595ZM128.683 52.756V58.246C128.683 58.618 128.767 58.888 128.935 59.056C129.115 59.212 129.415 59.29 129.835 59.29H131.095V61H129.475C128.551 61 127.843 60.784 127.351 60.352C126.859 59.92 126.613 59.218 126.613 58.246V52.756H125.443V51.082H126.613V48.616H128.683V51.082H131.095V52.756H128.683ZM142.077 55.798C142.077 56.17 142.053 56.506 142.005 56.806H134.427C134.487 57.598 134.781 58.234 135.309 58.714C135.837 59.194 136.485 59.434 137.253 59.434C138.357 59.434 139.137 58.972 139.593 58.048H141.807C141.507 58.96 140.961 59.71 140.169 60.298C139.389 60.874 138.417 61.162 137.253 61.162C136.305 61.162 135.453 60.952 134.697 60.532C133.953 60.1 133.365 59.5 132.933 58.732C132.513 57.952 132.303 57.052 132.303 56.032C132.303 55.012 132.507 54.118 132.915 53.35C133.335 52.57 133.917 51.97 134.661 51.55C135.417 51.13 136.281 50.92 137.253 50.92C138.189 50.92 139.023 51.124 139.755 51.532C140.487 51.94 141.057 52.516 141.465 53.26C141.873 53.992 142.077 54.838 142.077 55.798ZM139.935 55.15C139.923 54.394 139.653 53.788 139.125 53.332C138.597 52.876 137.943 52.648 137.163 52.648C136.455 52.648 135.849 52.876 135.345 53.332C134.841 53.776 134.541 54.382 134.445 55.15H139.935Z" fill="#09A350"/>
<path d="M158.817 62.25C156.151 61.4167 151.417 58.85 153.817 55.25C154.21 54.7727 154.701 54.2547 155.266 53.75M155.266 53.75C158.055 51.2591 162.659 49.0934 166.318 53.75C164.45 56.0833 159.625 59.35 155.266 53.75ZM159.817 50.75C160.651 48.25 164.118 43.55 171.318 44.75C170.652 47.4167 167.418 52.35 159.817 50.75ZM163.318 45.75C162.651 42.5833 163.118 36.15 170.318 35.75C170.818 38.4167 170.118 44.15 163.318 45.75ZM163.818 38.75C161.318 37.0833 157.817 32.55 163.818 27.75C165.818 29.5833 168.618 34.35 163.818 38.75Z" stroke="#09A350"/>
<path d="M205.502 39.098C204.597 39.098 203.771 38.888 203.024 38.468C202.277 38.0387 201.685 37.446 201.246 36.69C200.817 35.9247 200.602 35.066 200.602 34.114C200.602 33.162 200.817 32.308 201.246 31.552C201.685 30.7867 202.277 30.194 203.024 29.774C203.771 29.3447 204.597 29.13 205.502 29.13C206.417 29.13 207.247 29.3447 207.994 29.774C208.741 30.194 209.329 30.782 209.758 31.538C210.187 32.294 210.402 33.1527 210.402 34.114C210.402 35.0753 210.187 35.934 209.758 36.69C209.329 37.446 208.741 38.0387 207.994 38.468C207.247 38.888 206.417 39.098 205.502 39.098ZM205.502 37.992C206.183 37.992 206.795 37.8333 207.336 37.516C207.887 37.1987 208.316 36.746 208.624 36.158C208.941 35.57 209.1 34.8887 209.1 34.114C209.1 33.33 208.941 32.6487 208.624 32.07C208.316 31.482 207.891 31.0293 207.35 30.712C206.809 30.3947 206.193 30.236 205.502 30.236C204.811 30.236 204.195 30.3947 203.654 30.712C203.113 31.0293 202.683 31.482 202.366 32.07C202.058 32.6487 201.904 33.33 201.904 34.114C201.904 34.8887 202.058 35.57 202.366 36.158C202.683 36.746 203.113 37.1987 203.654 37.516C204.205 37.8333 204.821 37.992 205.502 37.992ZM215.822 31.188C216.755 31.188 217.511 31.4727 218.09 32.042C218.669 32.602 218.958 33.414 218.958 34.478V39H217.698V34.66C217.698 33.8947 217.507 33.3113 217.124 32.91C216.741 32.4993 216.219 32.294 215.556 32.294C214.884 32.294 214.347 32.504 213.946 32.924C213.554 33.344 213.358 33.9553 213.358 34.758V39H212.084V31.328H213.358V32.42C213.61 32.028 213.951 31.7247 214.38 31.51C214.819 31.2953 215.299 31.188 215.822 31.188ZM228.039 34.87C228.039 35.1127 228.025 35.3693 227.997 35.64H221.865C221.912 36.396 222.168 36.9887 222.635 37.418C223.111 37.838 223.685 38.048 224.357 38.048C224.908 38.048 225.365 37.922 225.729 37.67C226.102 37.4087 226.364 37.0633 226.513 36.634H227.885C227.68 37.3713 227.269 37.9733 226.653 38.44C226.037 38.8973 225.272 39.126 224.357 39.126C223.629 39.126 222.976 38.9627 222.397 38.636C221.828 38.3093 221.38 37.8473 221.053 37.25C220.726 36.6433 220.563 35.9433 220.563 35.15C220.563 34.3567 220.722 33.6613 221.039 33.064C221.356 32.4667 221.8 32.0093 222.369 31.692C222.948 31.3653 223.61 31.202 224.357 31.202C225.085 31.202 225.729 31.3607 226.289 31.678C226.849 31.9953 227.278 32.434 227.577 32.994C227.885 33.5447 228.039 34.17 228.039 34.87ZM226.723 34.604C226.723 34.1187 226.616 33.7033 226.401 33.358C226.186 33.0033 225.892 32.7373 225.519 32.56C225.155 32.3733 224.749 32.28 224.301 32.28C223.657 32.28 223.106 32.4853 222.649 32.896C222.201 33.3067 221.944 33.876 221.879 34.604H226.723ZM236.799 39.126C236.08 39.126 235.427 38.9627 234.839 38.636C234.26 38.3093 233.803 37.8473 233.467 37.25C233.14 36.6433 232.977 35.9433 232.977 35.15C232.977 34.366 233.145 33.6753 233.481 33.078C233.826 32.4713 234.293 32.0093 234.881 31.692C235.469 31.3653 236.127 31.202 236.855 31.202C237.583 31.202 238.241 31.3653 238.829 31.692C239.417 32.0093 239.879 32.4667 240.215 33.064C240.56 33.6613 240.733 34.3567 240.733 35.15C240.733 35.9433 240.556 36.6433 240.201 37.25C239.856 37.8473 239.384 38.3093 238.787 38.636C238.19 38.9627 237.527 39.126 236.799 39.126ZM236.799 38.006C237.256 38.006 237.686 37.8987 238.087 37.684C238.488 37.4693 238.81 37.1473 239.053 36.718C239.305 36.2887 239.431 35.766 239.431 35.15C239.431 34.534 239.31 34.0113 239.067 33.582C238.824 33.1527 238.507 32.8353 238.115 32.63C237.723 32.4153 237.298 32.308 236.841 32.308C236.374 32.308 235.945 32.4153 235.553 32.63C235.17 32.8353 234.862 33.1527 234.629 33.582C234.396 34.0113 234.279 34.534 234.279 35.15C234.279 35.7753 234.391 36.3027 234.615 36.732C234.848 37.1613 235.156 37.4833 235.539 37.698C235.922 37.9033 236.342 38.006 236.799 38.006ZM245.53 32.378H243.92V39H242.646V32.378H241.652V31.328H242.646V30.782C242.646 29.9233 242.865 29.298 243.304 28.906C243.752 28.5047 244.466 28.304 245.446 28.304V29.368C244.886 29.368 244.489 29.48 244.256 29.704C244.032 29.9187 243.92 30.278 243.92 30.782V31.328H245.53V32.378ZM252.302 32.378V36.9C252.302 37.2733 252.381 37.5393 252.54 37.698C252.699 37.8473 252.974 37.922 253.366 37.922H254.304V39H253.156C252.447 39 251.915 38.8367 251.56 38.51C251.205 38.1833 251.028 37.6467 251.028 36.9V32.378H250.034V31.328H251.028V29.396H252.302V31.328H254.304V32.378H252.302ZM259.656 31.188C260.234 31.188 260.757 31.314 261.224 31.566C261.69 31.8087 262.054 32.1773 262.316 32.672C262.586 33.1667 262.722 33.7687 262.722 34.478V39H261.462V34.66C261.462 33.8947 261.27 33.3113 260.888 32.91C260.505 32.4993 259.982 32.294 259.32 32.294C258.648 32.294 258.111 32.504 257.71 32.924C257.318 33.344 257.122 33.9553 257.122 34.758V39H255.848V28.64H257.122V32.42C257.374 32.028 257.719 31.7247 258.158 31.51C258.606 31.2953 259.105 31.188 259.656 31.188ZM271.803 34.87C271.803 35.1127 271.789 35.3693 271.761 35.64H265.629C265.675 36.396 265.932 36.9887 266.399 37.418C266.875 37.838 267.449 38.048 268.121 38.048C268.671 38.048 269.129 37.922 269.493 37.67C269.866 37.4087 270.127 37.0633 270.277 36.634H271.649C271.443 37.3713 271.033 37.9733 270.417 38.44C269.801 38.8973 269.035 39.126 268.121 39.126C267.393 39.126 266.739 38.9627 266.161 38.636C265.591 38.3093 265.143 37.8473 264.817 37.25C264.49 36.6433 264.327 35.9433 264.327 35.15C264.327 34.3567 264.485 33.6613 264.803 33.064C265.12 32.4667 265.563 32.0093 266.133 31.692C266.711 31.3653 267.374 31.202 268.121 31.202C268.849 31.202 269.493 31.3607 270.053 31.678C270.613 31.9953 271.042 32.434 271.341 32.994C271.649 33.5447 271.803 34.17 271.803 34.87ZM270.487 34.604C270.487 34.1187 270.379 33.7033 270.165 33.358C269.95 33.0033 269.656 32.7373 269.283 32.56C268.919 32.3733 268.513 32.28 268.065 32.28C267.421 32.28 266.87 32.4853 266.413 32.896C265.965 33.3067 265.708 33.876 265.643 34.604H270.487ZM286.443 31.188C287.04 31.188 287.572 31.314 288.039 31.566C288.505 31.8087 288.874 32.1773 289.145 32.672C289.415 33.1667 289.551 33.7687 289.551 34.478V39H288.291V34.66C288.291 33.8947 288.099 33.3113 287.717 32.91C287.343 32.4993 286.835 32.294 286.191 32.294C285.528 32.294 285.001 32.5087 284.609 32.938C284.217 33.358 284.021 33.9693 284.021 34.772V39H282.761V34.66C282.761 33.8947 282.569 33.3113 282.187 32.91C281.813 32.4993 281.305 32.294 280.661 32.294C279.998 32.294 279.471 32.5087 279.079 32.938C278.687 33.358 278.491 33.9693 278.491 34.772V39H277.217V31.328H278.491V32.434C278.743 32.0327 279.079 31.7247 279.499 31.51C279.928 31.2953 280.399 31.188 280.913 31.188C281.557 31.188 282.126 31.3327 282.621 31.622C283.115 31.9113 283.484 32.336 283.727 32.896C283.941 32.3547 284.296 31.9347 284.791 31.636C285.285 31.3373 285.836 31.188 286.443 31.188ZM294.987 39.126C294.268 39.126 293.615 38.9627 293.027 38.636C292.448 38.3093 291.991 37.8473 291.655 37.25C291.328 36.6433 291.165 35.9433 291.165 35.15C291.165 34.366 291.333 33.6753 291.669 33.078C292.014 32.4713 292.481 32.0093 293.069 31.692C293.657 31.3653 294.315 31.202 295.043 31.202C295.771 31.202 296.429 31.3653 297.017 31.692C297.605 32.0093 298.067 32.4667 298.403 33.064C298.748 33.6613 298.921 34.3567 298.921 35.15C298.921 35.9433 298.743 36.6433 298.389 37.25C298.043 37.8473 297.572 38.3093 296.975 38.636C296.377 38.9627 295.715 39.126 294.987 39.126ZM294.987 38.006C295.444 38.006 295.873 37.8987 296.275 37.684C296.676 37.4693 296.998 37.1473 297.241 36.718C297.493 36.2887 297.619 35.766 297.619 35.15C297.619 34.534 297.497 34.0113 297.255 33.582C297.012 33.1527 296.695 32.8353 296.303 32.63C295.911 32.4153 295.486 32.308 295.029 32.308C294.562 32.308 294.133 32.4153 293.741 32.63C293.358 32.8353 293.05 33.1527 292.817 33.582C292.583 34.0113 292.467 34.534 292.467 35.15C292.467 35.7753 292.579 36.3027 292.803 36.732C293.036 37.1613 293.344 37.4833 293.727 37.698C294.109 37.9033 294.529 38.006 294.987 38.006ZM303.312 39.126C302.724 39.126 302.196 39.028 301.73 38.832C301.263 38.6267 300.894 38.3467 300.624 37.992C300.353 37.628 300.204 37.2127 300.176 36.746H301.492C301.529 37.1287 301.706 37.4413 302.024 37.684C302.35 37.9267 302.775 38.048 303.298 38.048C303.783 38.048 304.166 37.9407 304.446 37.726C304.726 37.5113 304.866 37.2407 304.866 36.914C304.866 36.578 304.716 36.3307 304.418 36.172C304.119 36.004 303.657 35.8407 303.032 35.682C302.462 35.5327 301.996 35.3833 301.632 35.234C301.277 35.0753 300.969 34.8467 300.708 34.548C300.456 34.24 300.33 33.8387 300.33 33.344C300.33 32.952 300.446 32.5927 300.68 32.266C300.913 31.9393 301.244 31.6827 301.674 31.496C302.103 31.3 302.593 31.202 303.144 31.202C303.993 31.202 304.679 31.4167 305.202 31.846C305.724 32.2753 306.004 32.8633 306.042 33.61H304.768C304.74 33.2087 304.576 32.8867 304.278 32.644C303.988 32.4013 303.596 32.28 303.102 32.28C302.644 32.28 302.28 32.378 302.01 32.574C301.739 32.77 301.604 33.0267 301.604 33.344C301.604 33.596 301.683 33.806 301.842 33.974C302.01 34.1327 302.215 34.2633 302.458 34.366C302.71 34.4593 303.055 34.5667 303.494 34.688C304.044 34.8373 304.492 34.9867 304.838 35.136C305.183 35.276 305.477 35.4907 305.72 35.78C305.972 36.0693 306.102 36.4473 306.112 36.914C306.112 37.334 305.995 37.712 305.762 38.048C305.528 38.384 305.197 38.65 304.768 38.846C304.348 39.0327 303.862 39.126 303.312 39.126ZM309.464 32.378V36.9C309.464 37.2733 309.543 37.5393 309.702 37.698C309.861 37.8473 310.136 37.922 310.528 37.922H311.466V39H310.318C309.609 39 309.077 38.8367 308.722 38.51C308.367 38.1833 308.19 37.6467 308.19 36.9V32.378H307.196V31.328H308.19V29.396H309.464V31.328H311.466V32.378H309.464ZM318.016 28.64V39H316.742V28.64H318.016ZM323.533 39.126C322.815 39.126 322.161 38.9627 321.573 38.636C320.995 38.3093 320.537 37.8473 320.201 37.25C319.875 36.6433 319.711 35.9433 319.711 35.15C319.711 34.366 319.879 33.6753 320.215 33.078C320.561 32.4713 321.027 32.0093 321.615 31.692C322.203 31.3653 322.861 31.202 323.589 31.202C324.317 31.202 324.975 31.3653 325.563 31.692C326.151 32.0093 326.613 32.4667 326.949 33.064C327.295 33.6613 327.467 34.3567 327.467 35.15C327.467 35.9433 327.29 36.6433 326.935 37.25C326.59 37.8473 326.119 38.3093 325.521 38.636C324.924 38.9627 324.261 39.126 323.533 39.126ZM323.533 38.006C323.991 38.006 324.42 37.8987 324.821 37.684C325.223 37.4693 325.545 37.1473 325.787 36.718C326.039 36.2887 326.165 35.766 326.165 35.15C326.165 34.534 326.044 34.0113 325.801 33.582C325.559 33.1527 325.241 32.8353 324.849 32.63C324.457 32.4153 324.033 32.308 323.575 32.308C323.109 32.308 322.679 32.4153 322.287 32.63C321.905 32.8353 321.597 33.1527 321.363 33.582C321.13 34.0113 321.013 34.534 321.013 35.15C321.013 35.7753 321.125 36.3027 321.349 36.732C321.583 37.1613 321.891 37.4833 322.273 37.698C322.656 37.9033 323.076 38.006 323.533 38.006ZM331.998 37.824L334.378 31.328H335.736L332.726 39H331.242L328.232 31.328H329.604L331.998 37.824ZM343.99 34.87C343.99 35.1127 343.976 35.3693 343.948 35.64H337.816C337.863 36.396 338.119 36.9887 338.586 37.418C339.062 37.838 339.636 38.048 340.308 38.048C340.859 38.048 341.316 37.922 341.68 37.67C342.053 37.4087 342.315 37.0633 342.464 36.634H343.836C343.631 37.3713 343.22 37.9733 342.604 38.44C341.988 38.8973 341.223 39.126 340.308 39.126C339.58 39.126 338.927 38.9627 338.348 38.636C337.779 38.3093 337.331 37.8473 337.004 37.25C336.677 36.6433 336.514 35.9433 336.514 35.15C336.514 34.3567 336.673 33.6613 336.99 33.064C337.307 32.4667 337.751 32.0093 338.32 31.692C338.899 31.3653 339.561 31.202 340.308 31.202C341.036 31.202 341.68 31.3607 342.24 31.678C342.8 31.9953 343.229 32.434 343.528 32.994C343.836 33.5447 343.99 34.17 343.99 34.87ZM342.674 34.604C342.674 34.1187 342.567 33.7033 342.352 33.358C342.137 33.0033 341.843 32.7373 341.47 32.56C341.106 32.3733 340.7 32.28 340.252 32.28C339.608 32.28 339.057 32.4853 338.6 32.896C338.152 33.3067 337.895 33.876 337.83 34.604H342.674ZM345.196 35.136C345.196 34.352 345.354 33.666 345.672 33.078C345.989 32.4807 346.423 32.0187 346.974 31.692C347.534 31.3653 348.159 31.202 348.85 31.202C349.447 31.202 350.002 31.342 350.516 31.622C351.029 31.8927 351.421 32.252 351.692 32.7V28.64H352.98V39H351.692V37.558C351.44 38.0153 351.066 38.3933 350.572 38.692C350.077 38.9813 349.498 39.126 348.836 39.126C348.154 39.126 347.534 38.958 346.974 38.622C346.423 38.286 345.989 37.8147 345.672 37.208C345.354 36.6013 345.196 35.9107 345.196 35.136ZM351.692 35.15C351.692 34.5713 351.575 34.0673 351.342 33.638C351.108 33.2087 350.791 32.882 350.39 32.658C349.998 32.4247 349.564 32.308 349.088 32.308C348.612 32.308 348.178 32.42 347.786 32.644C347.394 32.868 347.081 33.1947 346.848 33.624C346.614 34.0533 346.498 34.5573 346.498 35.136C346.498 35.724 346.614 36.2373 346.848 36.676C347.081 37.1053 347.394 37.4367 347.786 37.67C348.178 37.894 348.612 38.006 349.088 38.006C349.564 38.006 349.998 37.894 350.39 37.67C350.791 37.4367 351.108 37.1053 351.342 36.676C351.575 36.2373 351.692 35.7287 351.692 35.15ZM362.673 31.188C363.252 31.188 363.774 31.314 364.241 31.566C364.708 31.8087 365.072 32.1773 365.333 32.672C365.604 33.1667 365.739 33.7687 365.739 34.478V39H364.479V34.66C364.479 33.8947 364.288 33.3113 363.905 32.91C363.522 32.4993 363 32.294 362.337 32.294C361.665 32.294 361.128 32.504 360.727 32.924C360.335 33.344 360.139 33.9553 360.139 34.758V39H358.865V28.64H360.139V32.42C360.391 32.028 360.736 31.7247 361.175 31.51C361.623 31.2953 362.122 31.188 362.673 31.188ZM371.166 39.126C370.448 39.126 369.794 38.9627 369.206 38.636C368.628 38.3093 368.17 37.8473 367.834 37.25C367.508 36.6433 367.344 35.9433 367.344 35.15C367.344 34.366 367.512 33.6753 367.848 33.078C368.194 32.4713 368.66 32.0093 369.248 31.692C369.836 31.3653 370.494 31.202 371.222 31.202C371.95 31.202 372.608 31.3653 373.196 31.692C373.784 32.0093 374.246 32.4667 374.582 33.064C374.928 33.6613 375.1 34.3567 375.1 35.15C375.1 35.9433 374.923 36.6433 374.568 37.25C374.223 37.8473 373.752 38.3093 373.154 38.636C372.557 38.9627 371.894 39.126 371.166 39.126ZM371.166 38.006C371.624 38.006 372.053 37.8987 372.454 37.684C372.856 37.4693 373.178 37.1473 373.42 36.718C373.672 36.2887 373.798 35.766 373.798 35.15C373.798 34.534 373.677 34.0113 373.434 33.582C373.192 33.1527 372.874 32.8353 372.482 32.63C372.09 32.4153 371.666 32.308 371.208 32.308C370.742 32.308 370.312 32.4153 369.92 32.63C369.538 32.8353 369.23 33.1527 368.996 33.582C368.763 34.0113 368.646 34.534 368.646 35.15C368.646 35.7753 368.758 36.3027 368.982 36.732C369.216 37.1613 369.524 37.4833 369.906 37.698C370.289 37.9033 370.709 38.006 371.166 38.006ZM386.001 31.188C386.599 31.188 387.131 31.314 387.597 31.566C388.064 31.8087 388.433 32.1773 388.703 32.672C388.974 33.1667 389.109 33.7687 389.109 34.478V39H387.849V34.66C387.849 33.8947 387.658 33.3113 387.275 32.91C386.902 32.4993 386.393 32.294 385.749 32.294C385.087 32.294 384.559 32.5087 384.167 32.938C383.775 33.358 383.579 33.9693 383.579 34.772V39H382.319V34.66C382.319 33.8947 382.128 33.3113 381.745 32.91C381.372 32.4993 380.863 32.294 380.219 32.294C379.557 32.294 379.029 32.5087 378.637 32.938C378.245 33.358 378.049 33.9693 378.049 34.772V39H376.775V31.328H378.049V32.434C378.301 32.0327 378.637 31.7247 379.057 31.51C379.487 31.2953 379.958 31.188 380.471 31.188C381.115 31.188 381.685 31.3327 382.179 31.622C382.674 31.9113 383.043 32.336 383.285 32.896C383.5 32.3547 383.855 31.9347 384.349 31.636C384.844 31.3373 385.395 31.188 386.001 31.188ZM398.199 34.87C398.199 35.1127 398.185 35.3693 398.157 35.64H392.025C392.072 36.396 392.328 36.9887 392.795 37.418C393.271 37.838 393.845 38.048 394.517 38.048C395.068 38.048 395.525 37.922 395.889 37.67C396.262 37.4087 396.524 37.0633 396.673 36.634H398.045C397.84 37.3713 397.429 37.9733 396.813 38.44C396.197 38.8973 395.432 39.126 394.517 39.126C393.789 39.126 393.136 38.9627 392.557 38.636C391.988 38.3093 391.54 37.8473 391.213 37.25C390.886 36.6433 390.723 35.9433 390.723 35.15C390.723 34.3567 390.882 33.6613 391.199 33.064C391.516 32.4667 391.96 32.0093 392.529 31.692C393.108 31.3653 393.77 31.202 394.517 31.202C395.245 31.202 395.889 31.3607 396.449 31.678C397.009 31.9953 397.438 32.434 397.737 32.994C398.045 33.5447 398.199 34.17 398.199 34.87ZM396.883 34.604C396.883 34.1187 396.776 33.7033 396.561 33.358C396.346 33.0033 396.052 32.7373 395.679 32.56C395.315 32.3733 394.909 32.28 394.461 32.28C393.817 32.28 393.266 32.4853 392.809 32.896C392.361 33.3067 392.104 33.876 392.039 34.604H396.883ZM402.597 39.126C402.009 39.126 401.481 39.028 401.015 38.832C400.548 38.6267 400.179 38.3467 399.909 37.992C399.638 37.628 399.489 37.2127 399.461 36.746H400.777C400.814 37.1287 400.991 37.4413 401.309 37.684C401.635 37.9267 402.06 38.048 402.583 38.048C403.068 38.048 403.451 37.9407 403.731 37.726C404.011 37.5113 404.151 37.2407 404.151 36.914C404.151 36.578 404.001 36.3307 403.703 36.172C403.404 36.004 402.942 35.8407 402.317 35.682C401.747 35.5327 401.281 35.3833 400.917 35.234C400.562 35.0753 400.254 34.8467 399.993 34.548C399.741 34.24 399.615 33.8387 399.615 33.344C399.615 32.952 399.731 32.5927 399.965 32.266C400.198 31.9393 400.529 31.6827 400.959 31.496C401.388 31.3 401.878 31.202 402.429 31.202C403.278 31.202 403.964 31.4167 404.487 31.846C405.009 32.2753 405.289 32.8633 405.327 33.61H404.053C404.025 33.2087 403.861 32.8867 403.563 32.644C403.273 32.4013 402.881 32.28 402.387 32.28C401.929 32.28 401.565 32.378 401.295 32.574C401.024 32.77 400.889 33.0267 400.889 33.344C400.889 33.596 400.968 33.806 401.127 33.974C401.295 34.1327 401.5 34.2633 401.743 34.366C401.995 34.4593 402.34 34.5667 402.779 34.688C403.329 34.8373 403.777 34.9867 404.123 35.136C404.468 35.276 404.762 35.4907 405.005 35.78C405.257 36.0693 405.387 36.4473 405.397 36.914C405.397 37.334 405.28 37.712 405.047 38.048C404.813 38.384 404.482 38.65 404.053 38.846C403.633 39.0327 403.147 39.126 402.597 39.126ZM414.274 39.126C413.555 39.126 412.902 38.9627 412.314 38.636C411.735 38.3093 411.278 37.8473 410.942 37.25C410.615 36.6433 410.452 35.9433 410.452 35.15C410.452 34.366 410.62 33.6753 410.956 33.078C411.301 32.4713 411.768 32.0093 412.356 31.692C412.944 31.3653 413.602 31.202 414.33 31.202C415.058 31.202 415.716 31.3653 416.304 31.692C416.892 32.0093 417.354 32.4667 417.69 33.064C418.035 33.6613 418.208 34.3567 418.208 35.15C418.208 35.9433 418.03 36.6433 417.676 37.25C417.33 37.8473 416.859 38.3093 416.262 38.636C415.664 38.9627 415.002 39.126 414.274 39.126ZM414.274 38.006C414.731 38.006 415.16 37.8987 415.562 37.684C415.963 37.4693 416.285 37.1473 416.528 36.718C416.78 36.2887 416.906 35.766 416.906 35.15C416.906 34.534 416.784 34.0113 416.542 33.582C416.299 33.1527 415.982 32.8353 415.59 32.63C415.198 32.4153 414.773 32.308 414.316 32.308C413.849 32.308 413.42 32.4153 413.028 32.63C412.645 32.8353 412.337 33.1527 412.104 33.582C411.87 34.0113 411.754 34.534 411.754 35.15C411.754 35.7753 411.866 36.3027 412.09 36.732C412.323 37.1613 412.631 37.4833 413.014 37.698C413.396 37.9033 413.816 38.006 414.274 38.006ZM423.621 31.188C424.554 31.188 425.31 31.4727 425.889 32.042C426.467 32.602 426.757 33.414 426.757 34.478V39H425.497V34.66C425.497 33.8947 425.305 33.3113 424.923 32.91C424.54 32.4993 424.017 32.294 423.355 32.294C422.683 32.294 422.146 32.504 421.745 32.924C421.353 33.344 421.157 33.9553 421.157 34.758V39H419.883V31.328H421.157V32.42C421.409 32.028 421.749 31.7247 422.179 31.51C422.617 31.2953 423.098 31.188 423.621 31.188ZM207.084 50.242V51.278H204.424V60H203.15V51.278H200.476V50.242H207.084ZM215.456 52.328V60H214.182V58.866C213.94 59.258 213.599 59.566 213.16 59.79C212.731 60.0047 212.255 60.112 211.732 60.112C211.135 60.112 210.598 59.9907 210.122 59.748C209.646 59.496 209.268 59.1227 208.988 58.628C208.718 58.1333 208.582 57.5313 208.582 56.822V52.328H209.842V56.654C209.842 57.41 210.034 57.9933 210.416 58.404C210.799 58.8053 211.322 59.006 211.984 59.006C212.666 59.006 213.202 58.796 213.594 58.376C213.986 57.956 214.182 57.3447 214.182 56.542V52.328H215.456ZM218.881 53.574C219.105 53.1353 219.423 52.7947 219.833 52.552C220.253 52.3093 220.762 52.188 221.359 52.188V53.504H221.023C219.595 53.504 218.881 54.2787 218.881 55.828V60H217.607V52.328H218.881V53.574ZM226.568 52.188C227.501 52.188 228.257 52.4727 228.836 53.042C229.415 53.602 229.704 54.414 229.704 55.478V60H228.444V55.66C228.444 54.8947 228.253 54.3113 227.87 53.91C227.487 53.4993 226.965 53.294 226.302 53.294C225.63 53.294 225.093 53.504 224.692 53.924C224.3 54.344 224.104 54.9553 224.104 55.758V60H222.83V52.328H224.104V53.42C224.356 53.028 224.697 52.7247 225.126 52.51C225.565 52.2953 226.045 52.188 226.568 52.188ZM240.809 60L236.791 55.548V60H235.517V50.242H236.791V54.764L240.823 50.242H242.433L238.009 55.128L242.475 60H240.809ZM250.898 55.87C250.898 56.1127 250.884 56.3693 250.856 56.64H244.724C244.771 57.396 245.028 57.9887 245.494 58.418C245.97 58.838 246.544 59.048 247.216 59.048C247.767 59.048 248.224 58.922 248.588 58.67C248.962 58.4087 249.223 58.0633 249.372 57.634H250.744C250.539 58.3713 250.128 58.9733 249.512 59.44C248.896 59.8973 248.131 60.126 247.216 60.126C246.488 60.126 245.835 59.9627 245.256 59.636C244.687 59.3093 244.239 58.8473 243.912 58.25C243.586 57.6433 243.422 56.9433 243.422 56.15C243.422 55.3567 243.581 54.6613 243.898 54.064C244.216 53.4667 244.659 53.0093 245.228 52.692C245.807 52.3653 246.47 52.202 247.216 52.202C247.944 52.202 248.588 52.3607 249.148 52.678C249.708 52.9953 250.138 53.434 250.436 53.994C250.744 54.5447 250.898 55.17 250.898 55.87ZM249.582 55.604C249.582 55.1187 249.475 54.7033 249.26 54.358C249.046 54.0033 248.752 53.7373 248.378 53.56C248.014 53.3733 247.608 53.28 247.16 53.28C246.516 53.28 245.966 53.4853 245.508 53.896C245.06 54.3067 244.804 54.876 244.738 55.604H249.582ZM259.188 52.328L254.568 63.612H253.252L254.764 59.916L251.67 52.328H253.084L255.492 58.544L257.872 52.328H259.188ZM263.185 60.126C262.597 60.126 262.069 60.028 261.603 59.832C261.136 59.6267 260.767 59.3467 260.497 58.992C260.226 58.628 260.077 58.2127 260.049 57.746H261.365C261.402 58.1287 261.579 58.4413 261.897 58.684C262.223 58.9267 262.648 59.048 263.171 59.048C263.656 59.048 264.039 58.9407 264.319 58.726C264.599 58.5113 264.739 58.2407 264.739 57.914C264.739 57.578 264.589 57.3307 264.291 57.172C263.992 57.004 263.53 56.8407 262.905 56.682C262.335 56.5327 261.869 56.3833 261.505 56.234C261.15 56.0753 260.842 55.8467 260.581 55.548C260.329 55.24 260.203 54.8387 260.203 54.344C260.203 53.952 260.319 53.5927 260.553 53.266C260.786 52.9393 261.117 52.6827 261.547 52.496C261.976 52.3 262.466 52.202 263.017 52.202C263.866 52.202 264.552 52.4167 265.075 52.846C265.597 53.2753 265.877 53.8633 265.915 54.61H264.641C264.613 54.2087 264.449 53.8867 264.151 53.644C263.861 53.4013 263.469 53.28 262.975 53.28C262.517 53.28 262.153 53.378 261.883 53.574C261.612 53.77 261.477 54.0267 261.477 54.344C261.477 54.596 261.556 54.806 261.715 54.974C261.883 55.1327 262.088 55.2633 262.331 55.366C262.583 55.4593 262.928 55.5667 263.367 55.688C263.917 55.8373 264.365 55.9867 264.711 56.136C265.056 56.276 265.35 56.4907 265.593 56.78C265.845 57.0693 265.975 57.4473 265.985 57.914C265.985 58.334 265.868 58.712 265.635 59.048C265.401 59.384 265.07 59.65 264.641 59.846C264.221 60.0327 263.735 60.126 263.185 60.126ZM269.099 58.236L267.531 62.002H266.677L267.699 58.236H269.099ZM273.815 56.136C273.815 55.352 273.974 54.666 274.291 54.078C274.608 53.4807 275.042 53.0187 275.593 52.692C276.153 52.3653 276.774 52.202 277.455 52.202C278.127 52.202 278.71 52.3467 279.205 52.636C279.7 52.9253 280.068 53.2893 280.311 53.728V52.328H281.599V60H280.311V58.572C280.059 59.02 279.681 59.3933 279.177 59.692C278.682 59.9813 278.104 60.126 277.441 60.126C276.76 60.126 276.144 59.958 275.593 59.622C275.042 59.286 274.608 58.8147 274.291 58.208C273.974 57.6013 273.815 56.9107 273.815 56.136ZM280.311 56.15C280.311 55.5713 280.194 55.0673 279.961 54.638C279.728 54.2087 279.41 53.882 279.009 53.658C278.617 53.4247 278.183 53.308 277.707 53.308C277.231 53.308 276.797 53.42 276.405 53.644C276.013 53.868 275.7 54.1947 275.467 54.624C275.234 55.0533 275.117 55.5573 275.117 56.136C275.117 56.724 275.234 57.2373 275.467 57.676C275.7 58.1053 276.013 58.4367 276.405 58.67C276.797 58.894 277.231 59.006 277.707 59.006C278.183 59.006 278.617 58.894 279.009 58.67C279.41 58.4367 279.728 58.1053 279.961 57.676C280.194 57.2373 280.311 56.7287 280.311 56.15ZM283.276 56.15C283.276 55.3567 283.434 54.666 283.752 54.078C284.069 53.4807 284.508 53.0187 285.068 52.692C285.637 52.3653 286.286 52.202 287.014 52.202C287.956 52.202 288.731 52.4307 289.338 52.888C289.954 53.3453 290.36 53.98 290.556 54.792H289.184C289.053 54.3253 288.796 53.9567 288.414 53.686C288.04 53.4153 287.574 53.28 287.014 53.28C286.286 53.28 285.698 53.532 285.25 54.036C284.802 54.5307 284.578 55.2353 284.578 56.15C284.578 57.074 284.802 57.788 285.25 58.292C285.698 58.796 286.286 59.048 287.014 59.048C287.574 59.048 288.04 58.9173 288.414 58.656C288.787 58.3947 289.044 58.0213 289.184 57.536H290.556C290.35 58.32 289.94 58.95 289.324 59.426C288.708 59.8927 287.938 60.126 287.014 60.126C286.286 60.126 285.637 59.9627 285.068 59.636C284.508 59.3093 284.069 58.8473 283.752 58.25C283.434 57.6527 283.276 56.9527 283.276 56.15ZM291.78 56.15C291.78 55.3567 291.938 54.666 292.256 54.078C292.573 53.4807 293.012 53.0187 293.572 52.692C294.141 52.3653 294.79 52.202 295.518 52.202C296.46 52.202 297.235 52.4307 297.842 52.888C298.458 53.3453 298.864 53.98 299.06 54.792H297.688C297.557 54.3253 297.3 53.9567 296.918 53.686C296.544 53.4153 296.078 53.28 295.518 53.28C294.79 53.28 294.202 53.532 293.754 54.036C293.306 54.5307 293.082 55.2353 293.082 56.15C293.082 57.074 293.306 57.788 293.754 58.292C294.202 58.796 294.79 59.048 295.518 59.048C296.078 59.048 296.544 58.9173 296.918 58.656C297.291 58.3947 297.548 58.0213 297.688 57.536H299.06C298.854 58.32 298.444 58.95 297.828 59.426C297.212 59.8927 296.442 60.126 295.518 60.126C294.79 60.126 294.141 59.9627 293.572 59.636C293.012 59.3093 292.573 58.8473 292.256 58.25C291.938 57.6527 291.78 56.9527 291.78 56.15ZM304.106 60.126C303.387 60.126 302.734 59.9627 302.146 59.636C301.567 59.3093 301.11 58.8473 300.774 58.25C300.447 57.6433 300.284 56.9433 300.284 56.15C300.284 55.366 300.452 54.6753 300.788 54.078C301.133 53.4713 301.6 53.0093 302.188 52.692C302.776 52.3653 303.434 52.202 304.162 52.202C304.89 52.202 305.548 52.3653 306.136 52.692C306.724 53.0093 307.186 53.4667 307.522 54.064C307.867 54.6613 308.04 55.3567 308.04 56.15C308.04 56.9433 307.862 57.6433 307.508 58.25C307.162 58.8473 306.691 59.3093 306.094 59.636C305.496 59.9627 304.834 60.126 304.106 60.126ZM304.106 59.006C304.563 59.006 304.992 58.8987 305.394 58.684C305.795 58.4693 306.117 58.1473 306.36 57.718C306.612 57.2887 306.738 56.766 306.738 56.15C306.738 55.534 306.616 55.0113 306.374 54.582C306.131 54.1527 305.814 53.8353 305.422 53.63C305.03 53.4153 304.605 53.308 304.148 53.308C303.681 53.308 303.252 53.4153 302.86 53.63C302.477 53.8353 302.169 54.1527 301.936 54.582C301.702 55.0113 301.586 55.534 301.586 56.15C301.586 56.7753 301.698 57.3027 301.922 57.732C302.155 58.1613 302.463 58.4833 302.846 58.698C303.228 58.9033 303.648 59.006 304.106 59.006ZM310.989 53.574C311.213 53.1353 311.53 52.7947 311.941 52.552C312.361 52.3093 312.869 52.188 313.467 52.188V53.504H313.131C311.703 53.504 310.989 54.2787 310.989 55.828V60H309.715V52.328H310.989V53.574ZM314.461 56.136C314.461 55.352 314.62 54.666 314.937 54.078C315.255 53.4807 315.689 53.0187 316.239 52.692C316.799 52.3653 317.425 52.202 318.115 52.202C318.713 52.202 319.268 52.342 319.781 52.622C320.295 52.8927 320.687 53.252 320.957 53.7V49.64H322.245V60H320.957V58.558C320.705 59.0153 320.332 59.3933 319.837 59.692C319.343 59.9813 318.764 60.126 318.101 60.126C317.42 60.126 316.799 59.958 316.239 59.622C315.689 59.286 315.255 58.8147 314.937 58.208C314.62 57.6013 314.461 56.9107 314.461 56.136ZM320.957 56.15C320.957 55.5713 320.841 55.0673 320.607 54.638C320.374 54.2087 320.057 53.882 319.655 53.658C319.263 53.4247 318.829 53.308 318.353 53.308C317.877 53.308 317.443 53.42 317.051 53.644C316.659 53.868 316.347 54.1947 316.113 54.624C315.88 55.0533 315.763 55.5573 315.763 56.136C315.763 56.724 315.88 57.2373 316.113 57.676C316.347 58.1053 316.659 58.4367 317.051 58.67C317.443 58.894 317.877 59.006 318.353 59.006C318.829 59.006 319.263 58.894 319.655 58.67C320.057 58.4367 320.374 58.1053 320.607 57.676C320.841 57.2373 320.957 56.7287 320.957 56.15ZM325.056 51.082C324.814 51.082 324.608 50.998 324.44 50.83C324.272 50.662 324.188 50.4567 324.188 50.214C324.188 49.9713 324.272 49.766 324.44 49.598C324.608 49.43 324.814 49.346 325.056 49.346C325.29 49.346 325.486 49.43 325.644 49.598C325.812 49.766 325.896 49.9713 325.896 50.214C325.896 50.4567 325.812 50.662 325.644 50.83C325.486 50.998 325.29 51.082 325.056 51.082ZM325.672 52.328V60H324.398V52.328H325.672ZM331.582 52.188C332.515 52.188 333.271 52.4727 333.85 53.042C334.428 53.602 334.718 54.414 334.718 55.478V60H333.458V55.66C333.458 54.8947 333.266 54.3113 332.884 53.91C332.501 53.4993 331.978 53.294 331.316 53.294C330.644 53.294 330.107 53.504 329.706 53.924C329.314 54.344 329.118 54.9553 329.118 55.758V60H327.844V52.328H329.118V53.42C329.37 53.028 329.71 52.7247 330.14 52.51C330.578 52.2953 331.059 52.188 331.582 52.188ZM339.963 52.202C340.625 52.202 341.204 52.3467 341.699 52.636C342.203 52.9253 342.576 53.2893 342.819 53.728V52.328H344.107V60.168C344.107 60.868 343.957 61.4887 343.659 62.03C343.36 62.5807 342.931 63.01 342.371 63.318C341.82 63.626 341.176 63.78 340.439 63.78C339.431 63.78 338.591 63.542 337.919 63.066C337.247 62.59 336.85 61.9413 336.729 61.12H337.989C338.129 61.5867 338.418 61.96 338.857 62.24C339.295 62.5293 339.823 62.674 340.439 62.674C341.139 62.674 341.708 62.4547 342.147 62.016C342.595 61.5773 342.819 60.9613 342.819 60.168V58.558C342.567 59.006 342.193 59.3793 341.699 59.678C341.204 59.9767 340.625 60.126 339.963 60.126C339.281 60.126 338.661 59.958 338.101 59.622C337.55 59.286 337.116 58.8147 336.799 58.208C336.481 57.6013 336.323 56.9107 336.323 56.136C336.323 55.352 336.481 54.666 336.799 54.078C337.116 53.4807 337.55 53.0187 338.101 52.692C338.661 52.3653 339.281 52.202 339.963 52.202ZM342.819 56.15C342.819 55.5713 342.702 55.0673 342.469 54.638C342.235 54.2087 341.918 53.882 341.517 53.658C341.125 53.4247 340.691 53.308 340.215 53.308C339.739 53.308 339.305 53.42 338.913 53.644C338.521 53.868 338.208 54.1947 337.975 54.624C337.741 55.0533 337.625 55.5573 337.625 56.136C337.625 56.724 337.741 57.2373 337.975 57.676C338.208 58.1053 338.521 58.4367 338.913 58.67C339.305 58.894 339.739 59.006 340.215 59.006C340.691 59.006 341.125 58.894 341.517 58.67C341.918 58.4367 342.235 58.1053 342.469 57.676C342.702 57.2373 342.819 56.7287 342.819 56.15ZM351.546 53.378V57.9C351.546 58.2733 351.625 58.5393 351.784 58.698C351.943 58.8473 352.218 58.922 352.61 58.922H353.548V60H352.4C351.691 60 351.159 59.8367 350.804 59.51C350.449 59.1833 350.272 58.6467 350.272 57.9V53.378H349.278V52.328H350.272V50.396H351.546V52.328H353.548V53.378H351.546ZM358.438 60.126C357.719 60.126 357.066 59.9627 356.478 59.636C355.899 59.3093 355.442 58.8473 355.106 58.25C354.779 57.6433 354.616 56.9433 354.616 56.15C354.616 55.366 354.784 54.6753 355.12 54.078C355.465 53.4713 355.932 53.0093 356.52 52.692C357.108 52.3653 357.766 52.202 358.494 52.202C359.222 52.202 359.88 52.3653 360.468 52.692C361.056 53.0093 361.518 53.4667 361.854 54.064C362.199 54.6613 362.372 55.3567 362.372 56.15C362.372 56.9433 362.194 57.6433 361.84 58.25C361.494 58.8473 361.023 59.3093 360.426 59.636C359.828 59.9627 359.166 60.126 358.438 60.126ZM358.438 59.006C358.895 59.006 359.324 58.8987 359.726 58.684C360.127 58.4693 360.449 58.1473 360.692 57.718C360.944 57.2887 361.07 56.766 361.07 56.15C361.07 55.534 360.948 55.0113 360.706 54.582C360.463 54.1527 360.146 53.8353 359.754 53.63C359.362 53.4153 358.937 53.308 358.48 53.308C358.013 53.308 357.584 53.4153 357.192 53.63C356.809 53.8353 356.501 54.1527 356.268 54.582C356.034 55.0113 355.918 55.534 355.918 56.15C355.918 56.7753 356.03 57.3027 356.254 57.732C356.487 58.1613 356.795 58.4833 357.178 58.698C357.56 58.9033 357.98 59.006 358.438 59.006ZM370.943 52.202C371.606 52.202 372.185 52.3467 372.679 52.636C373.183 52.9253 373.557 53.2893 373.799 53.728V52.328H375.087V60.168C375.087 60.868 374.938 61.4887 374.639 62.03C374.341 62.5807 373.911 63.01 373.351 63.318C372.801 63.626 372.157 63.78 371.419 63.78C370.411 63.78 369.571 63.542 368.899 63.066C368.227 62.59 367.831 61.9413 367.709 61.12H368.969C369.109 61.5867 369.399 61.96 369.837 62.24C370.276 62.5293 370.803 62.674 371.419 62.674C372.119 62.674 372.689 62.4547 373.127 62.016C373.575 61.5773 373.799 60.9613 373.799 60.168V58.558C373.547 59.006 373.174 59.3793 372.679 59.678C372.185 59.9767 371.606 60.126 370.943 60.126C370.262 60.126 369.641 59.958 369.081 59.622C368.531 59.286 368.097 58.8147 367.779 58.208C367.462 57.6013 367.303 56.9107 367.303 56.136C367.303 55.352 367.462 54.666 367.779 54.078C368.097 53.4807 368.531 53.0187 369.081 52.692C369.641 52.3653 370.262 52.202 370.943 52.202ZM373.799 56.15C373.799 55.5713 373.683 55.0673 373.449 54.638C373.216 54.2087 372.899 53.882 372.497 53.658C372.105 53.4247 371.671 53.308 371.195 53.308C370.719 53.308 370.285 53.42 369.893 53.644C369.501 53.868 369.189 54.1947 368.955 54.624C368.722 55.0533 368.605 55.5573 368.605 56.136C368.605 56.724 368.722 57.2373 368.955 57.676C369.189 58.1053 369.501 58.4367 369.893 58.67C370.285 58.894 370.719 59.006 371.195 59.006C371.671 59.006 372.105 58.894 372.497 58.67C372.899 58.4367 373.216 58.1053 373.449 57.676C373.683 57.2373 373.799 56.7287 373.799 56.15ZM384.044 52.328V60H382.77V58.866C382.527 59.258 382.187 59.566 381.748 59.79C381.319 60.0047 380.843 60.112 380.32 60.112C379.723 60.112 379.186 59.9907 378.71 59.748C378.234 59.496 377.856 59.1227 377.576 58.628C377.305 58.1333 377.17 57.5313 377.17 56.822V52.328H378.43V56.654C378.43 57.41 378.621 57.9933 379.004 58.404C379.387 58.8053 379.909 59.006 380.572 59.006C381.253 59.006 381.79 58.796 382.182 58.376C382.574 57.956 382.77 57.3447 382.77 56.542V52.328H384.044ZM393.195 55.87C393.195 56.1127 393.181 56.3693 393.153 56.64H387.021C387.068 57.396 387.325 57.9887 387.791 58.418C388.267 58.838 388.841 59.048 389.513 59.048C390.064 59.048 390.521 58.922 390.885 58.67C391.259 58.4087 391.52 58.0633 391.669 57.634H393.041C392.836 58.3713 392.425 58.9733 391.809 59.44C391.193 59.8973 390.428 60.126 389.513 60.126C388.785 60.126 388.132 59.9627 387.553 59.636C386.984 59.3093 386.536 58.8473 386.209 58.25C385.883 57.6433 385.719 56.9433 385.719 56.15C385.719 55.3567 385.878 54.6613 386.195 54.064C386.513 53.4667 386.956 53.0093 387.525 52.692C388.104 52.3653 388.767 52.202 389.513 52.202C390.241 52.202 390.885 52.3607 391.445 52.678C392.005 52.9953 392.435 53.434 392.733 53.994C393.041 54.5447 393.195 55.17 393.195 55.87ZM391.879 55.604C391.879 55.1187 391.772 54.7033 391.557 54.358C391.343 54.0033 391.049 53.7373 390.675 53.56C390.311 53.3733 389.905 53.28 389.457 53.28C388.813 53.28 388.263 53.4853 387.805 53.896C387.357 54.3067 387.101 54.876 387.035 55.604H391.879ZM397.593 60.126C397.005 60.126 396.477 60.028 396.011 59.832C395.544 59.6267 395.175 59.3467 394.905 58.992C394.634 58.628 394.485 58.2127 394.457 57.746H395.773C395.81 58.1287 395.987 58.4413 396.305 58.684C396.631 58.9267 397.056 59.048 397.579 59.048C398.064 59.048 398.447 58.9407 398.727 58.726C399.007 58.5113 399.147 58.2407 399.147 57.914C399.147 57.578 398.997 57.3307 398.699 57.172C398.4 57.004 397.938 56.8407 397.313 56.682C396.743 56.5327 396.277 56.3833 395.913 56.234C395.558 56.0753 395.25 55.8467 394.989 55.548C394.737 55.24 394.611 54.8387 394.611 54.344C394.611 53.952 394.727 53.5927 394.961 53.266C395.194 52.9393 395.525 52.6827 395.955 52.496C396.384 52.3 396.874 52.202 397.425 52.202C398.274 52.202 398.96 52.4167 399.483 52.846C400.005 53.2753 400.285 53.8633 400.323 54.61H399.049C399.021 54.2087 398.857 53.8867 398.559 53.644C398.269 53.4013 397.877 53.28 397.383 53.28C396.925 53.28 396.561 53.378 396.291 53.574C396.02 53.77 395.885 54.0267 395.885 54.344C395.885 54.596 395.964 54.806 396.123 54.974C396.291 55.1327 396.496 55.2633 396.739 55.366C396.991 55.4593 397.336 55.5667 397.775 55.688C398.325 55.8373 398.773 55.9867 399.119 56.136C399.464 56.276 399.758 56.4907 400.001 56.78C400.253 57.0693 400.383 57.4473 400.393 57.914C400.393 58.334 400.276 58.712 400.043 59.048C399.809 59.384 399.478 59.65 399.049 59.846C398.629 60.0327 398.143 60.126 397.593 60.126ZM403.745 53.378V57.9C403.745 58.2733 403.825 58.5393 403.983 58.698C404.142 58.8473 404.417 58.922 404.809 58.922H405.747V60H404.599C403.89 60 403.358 59.8367 403.003 59.51C402.649 59.1833 402.471 58.6467 402.471 57.9V53.378H401.477V52.328H402.471V50.396H403.745V52.328H405.747V53.378H403.745Z" fill="black"/>
<path d="M590.996 57L589.502 54.435H588.512V57H587.693V50.727H589.718C590.192 50.727 590.591 50.808 590.915 50.97C591.245 51.132 591.491 51.351 591.653 51.627C591.815 51.903 591.896 52.218 591.896 52.572C591.896 53.004 591.77 53.385 591.518 53.715C591.272 54.045 590.9 54.264 590.402 54.372L591.977 57H590.996ZM588.512 53.778H589.718C590.162 53.778 590.495 53.67 590.717 53.454C590.939 53.232 591.05 52.938 591.05 52.572C591.05 52.2 590.939 51.912 590.717 51.708C590.501 51.504 590.168 51.402 589.718 51.402H588.512V53.778ZM597.669 54.345C597.669 54.501 597.66 54.666 597.642 54.84H593.7C593.73 55.326 593.895 55.707 594.195 55.983C594.501 56.253 594.87 56.388 595.302 56.388C595.656 56.388 595.95 56.307 596.184 56.145C596.424 55.977 596.592 55.755 596.688 55.479H597.57C597.438 55.953 597.174 56.34 596.778 56.64C596.382 56.934 595.89 57.081 595.302 57.081C594.834 57.081 594.414 56.976 594.042 56.766C593.676 56.556 593.388 56.259 593.178 55.875C592.968 55.485 592.863 55.035 592.863 54.525C592.863 54.015 592.965 53.568 593.169 53.184C593.373 52.8 593.658 52.506 594.024 52.302C594.396 52.092 594.822 51.987 595.302 51.987C595.77 51.987 596.184 52.089 596.544 52.293C596.904 52.497 597.18 52.779 597.372 53.139C597.57 53.493 597.669 53.895 597.669 54.345ZM596.823 54.174C596.823 53.862 596.754 53.595 596.616 53.373C596.478 53.145 596.289 52.974 596.049 52.86C595.815 52.74 595.554 52.68 595.266 52.68C594.852 52.68 594.498 52.812 594.204 53.076C593.916 53.34 593.751 53.706 593.709 54.174H596.823ZM600.586 56.244L602.116 52.068H602.989L601.054 57H600.1L598.165 52.068H599.047L600.586 56.244ZM604.218 51.267C604.062 51.267 603.93 51.213 603.822 51.105C603.714 50.997 603.66 50.865 603.66 50.709C603.66 50.553 603.714 50.421 603.822 50.313C603.93 50.205 604.062 50.151 604.218 50.151C604.368 50.151 604.494 50.205 604.596 50.313C604.704 50.421 604.758 50.553 604.758 50.709C604.758 50.865 604.704 50.997 604.596 51.105C604.494 51.213 604.368 51.267 604.218 51.267ZM604.614 52.068V57H603.795V52.068H604.614ZM610.509 54.345C610.509 54.501 610.5 54.666 610.482 54.84H606.54C606.57 55.326 606.735 55.707 607.035 55.983C607.341 56.253 607.71 56.388 608.142 56.388C608.496 56.388 608.79 56.307 609.024 56.145C609.264 55.977 609.432 55.755 609.528 55.479H610.41C610.278 55.953 610.014 56.34 609.618 56.64C609.222 56.934 608.73 57.081 608.142 57.081C607.674 57.081 607.254 56.976 606.882 56.766C606.516 56.556 606.228 56.259 606.018 55.875C605.808 55.485 605.703 55.035 605.703 54.525C605.703 54.015 605.805 53.568 606.009 53.184C606.213 52.8 606.498 52.506 606.864 52.302C607.236 52.092 607.662 51.987 608.142 51.987C608.61 51.987 609.024 52.089 609.384 52.293C609.744 52.497 610.02 52.779 610.212 53.139C610.41 53.493 610.509 53.895 610.509 54.345ZM609.663 54.174C609.663 53.862 609.594 53.595 609.456 53.373C609.318 53.145 609.129 52.974 608.889 52.86C608.655 52.74 608.394 52.68 608.106 52.68C607.692 52.68 607.338 52.812 607.044 53.076C606.756 53.34 606.591 53.706 606.549 54.174H609.663ZM618.16 52.068L616.621 57H615.775L614.587 53.085L613.399 57H612.553L611.005 52.068H611.842L612.976 56.208L614.2 52.068H615.037L616.234 56.217L617.35 52.068H618.16ZM620.719 57.081C620.341 57.081 620.002 57.018 619.702 56.892C619.402 56.76 619.165 56.58 618.991 56.352C618.817 56.118 618.721 55.851 618.703 55.551H619.549C619.573 55.797 619.687 55.998 619.891 56.154C620.101 56.31 620.374 56.388 620.71 56.388C621.022 56.388 621.268 56.319 621.448 56.181C621.628 56.043 621.718 55.869 621.718 55.659C621.718 55.443 621.622 55.284 621.43 55.182C621.238 55.074 620.941 54.969 620.539 54.867C620.173 54.771 619.873 54.675 619.639 54.579C619.411 54.477 619.213 54.33 619.045 54.138C618.883 53.94 618.802 53.682 618.802 53.364C618.802 53.112 618.877 52.881 619.027 52.671C619.177 52.461 619.39 52.296 619.666 52.176C619.942 52.05 620.257 51.987 620.611 51.987C621.157 51.987 621.598 52.125 621.934 52.401C622.27 52.677 622.45 53.055 622.474 53.535H621.655C621.637 53.277 621.532 53.07 621.34 52.914C621.154 52.758 620.902 52.68 620.584 52.68C620.29 52.68 620.056 52.743 619.882 52.869C619.708 52.995 619.621 53.16 619.621 53.364C619.621 53.526 619.672 53.661 619.774 53.769C619.882 53.871 620.014 53.955 620.17 54.021C620.332 54.081 620.554 54.15 620.836 54.228C621.19 54.324 621.478 54.42 621.7 54.516C621.922 54.606 622.111 54.744 622.267 54.93C622.429 55.116 622.513 55.359 622.519 55.659C622.519 55.929 622.444 56.172 622.294 56.388C622.144 56.604 621.931 56.775 621.655 56.901C621.385 57.021 621.073 57.081 620.719 57.081Z" fill="black"/>
<path d="M587 57.9H622.978V58.35H587V57.9Z" fill="black"/>
<path d="M487.34 41.619V40.17L494.711 29.964H497V39.96H499.1V41.619H497V45H495.11V41.619H487.34ZM495.194 31.959L489.545 39.96H495.194V31.959ZM501.933 45.126C501.569 45.126 501.261 45 501.009 44.748C500.757 44.496 500.631 44.188 500.631 43.824C500.631 43.46 500.757 43.152 501.009 42.9C501.261 42.648 501.569 42.522 501.933 42.522C502.283 42.522 502.577 42.648 502.815 42.9C503.067 43.152 503.193 43.46 503.193 43.824C503.193 44.188 503.067 44.496 502.815 44.748C502.577 45 502.283 45.126 501.933 45.126ZM508.19 37.104C507.406 36.796 506.804 36.348 506.384 35.76C505.964 35.172 505.754 34.458 505.754 33.618C505.754 32.862 505.943 32.183 506.321 31.581C506.699 30.965 507.259 30.482 508.001 30.132C508.757 29.768 509.667 29.586 510.731 29.586C511.795 29.586 512.698 29.768 513.44 30.132C514.196 30.482 514.763 30.965 515.141 31.581C515.533 32.183 515.729 32.862 515.729 33.618C515.729 34.43 515.512 35.144 515.078 35.76C514.644 36.362 514.049 36.81 513.293 37.104C514.161 37.37 514.847 37.839 515.351 38.511C515.869 39.169 516.128 39.967 516.128 40.905C516.128 41.815 515.904 42.613 515.456 43.299C515.008 43.971 514.371 44.496 513.545 44.874C512.733 45.238 511.795 45.42 510.731 45.42C509.667 45.42 508.729 45.238 507.917 44.874C507.119 44.496 506.496 43.971 506.048 43.299C505.6 42.613 505.376 41.815 505.376 40.905C505.376 39.967 505.628 39.162 506.132 38.49C506.636 37.818 507.322 37.356 508.19 37.104ZM513.881 33.849C513.881 32.995 513.601 32.337 513.041 31.875C512.481 31.413 511.711 31.182 510.731 31.182C509.765 31.182 509.002 31.413 508.442 31.875C507.882 32.337 507.602 33.002 507.602 33.87C507.602 34.654 507.889 35.284 508.463 35.76C509.051 36.236 509.807 36.474 510.731 36.474C511.669 36.474 512.425 36.236 512.999 35.76C513.587 35.27 513.881 34.633 513.881 33.849ZM510.731 37.944C509.695 37.944 508.848 38.189 508.19 38.679C507.532 39.155 507.203 39.876 507.203 40.842C507.203 41.738 507.518 42.459 508.148 43.005C508.792 43.551 509.653 43.824 510.731 43.824C511.809 43.824 512.663 43.551 513.293 43.005C513.923 42.459 514.238 41.738 514.238 40.842C514.238 39.904 513.916 39.19 513.272 38.7C512.628 38.196 511.781 37.944 510.731 37.944ZM521.123 40.926C521.263 41.724 521.585 42.34 522.089 42.774C522.607 43.208 523.3 43.425 524.168 43.425C525.33 43.425 526.184 42.97 526.73 42.06C527.29 41.15 527.556 39.617 527.528 37.461C527.234 38.091 526.744 38.588 526.058 38.952C525.372 39.302 524.609 39.477 523.769 39.477C522.831 39.477 521.991 39.288 521.249 38.91C520.521 38.518 519.947 37.951 519.527 37.209C519.107 36.467 518.897 35.571 518.897 34.521C518.897 33.023 519.331 31.819 520.199 30.909C521.067 29.985 522.299 29.523 523.895 29.523C525.855 29.523 527.227 30.16 528.011 31.434C528.809 32.708 529.208 34.605 529.208 37.125C529.208 38.889 529.047 40.345 528.725 41.493C528.417 42.641 527.885 43.516 527.129 44.118C526.387 44.72 525.365 45.021 524.063 45.021C522.635 45.021 521.522 44.636 520.724 43.866C519.926 43.096 519.471 42.116 519.359 40.926H521.123ZM524.084 37.86C525.022 37.86 525.792 37.573 526.394 36.999C526.996 36.411 527.297 35.62 527.297 34.626C527.297 33.576 527.003 32.729 526.415 32.085C525.827 31.441 525.001 31.119 523.937 31.119C522.957 31.119 522.173 31.427 521.585 32.043C521.011 32.659 520.724 33.471 520.724 34.479C520.724 35.501 521.011 36.32 521.585 36.936C522.159 37.552 522.992 37.86 524.084 37.86Z" fill="#09A350"/>
<path d="M484.139 60.5L485.5 57L486.472 60.5H490L487.038 62.5364L488 66L485.2 63.8L482 66L483.404 62.3891L481 60.5H484.139Z" fill="#09A350"/>
<path d="M497.139 60.5L498.5 57L499.472 60.5H503L500.038 62.5364L501 66L498.2 63.8L495 66L496.404 62.3891L494 60.5H497.139Z" fill="#09A350"/>
<path d="M510.139 60.5L511.5 57L512.472 60.5H516L513.038 62.5364L514 66L511.2 63.8L508 66L509.404 62.3891L507 60.5H510.139Z" fill="#09A350"/>
<path d="M523.139 60.5L524.5 57L525.472 60.5H529L526.038 62.5364L527 66L524.2 63.8L521 66L522.404 62.3891L520 60.5H523.139Z" fill="#09A350"/>
<path d="M536.139 60.5L537.5 57L538.472 60.5H542L539.038 62.5364L540 66L537.2 63.8L534 66L535.404 62.3891L533 60.5H536.139Z" fill="#09A350"/>
<path d="M596.798 31.56V29.817H600.746V45H598.814V31.56H596.798ZM603.798 43.467C605.576 42.039 606.969 40.87 607.977 39.96C608.985 39.036 609.832 38.077 610.518 37.083C611.218 36.075 611.568 35.088 611.568 34.122C611.568 33.212 611.344 32.498 610.896 31.98C610.462 31.448 609.755 31.182 608.775 31.182C607.823 31.182 607.081 31.483 606.549 32.085C606.031 32.673 605.751 33.464 605.709 34.458H603.861C603.917 32.89 604.393 31.679 605.289 30.825C606.185 29.971 607.34 29.544 608.754 29.544C610.196 29.544 611.337 29.943 612.177 30.741C613.031 31.539 613.458 32.638 613.458 34.038C613.458 35.2 613.108 36.334 612.408 37.44C611.722 38.532 610.938 39.498 610.056 40.338C609.174 41.164 608.047 42.13 606.675 43.236H613.899V44.832H603.798V43.467Z" fill="#09A350"/>
<path d="M568 21V69" stroke="#DDDDDD"/>
</svg>
