<svg width="20" height="20" viewBox="0 0 20 20" fill="none" xmlns="http://www.w3.org/2000/svg">
<path d="M10 -0.00195312C15.524 -0.00195312 20.002 4.47605 20.002 10C20.002 15.523 15.524 20.001 10 20.001C4.47605 20.001 -0.00195312 15.523 -0.00195312 10C-0.00195313 4.47605 4.47605 -0.00195312 10 -0.00195312ZM10 1.49805C8.87586 1.48585 7.76041 1.69675 6.71827 2.11852C5.67612 2.54029 4.72798 3.16457 3.92871 3.95521C3.12944 4.74586 2.49492 5.68718 2.06187 6.72469C1.62882 7.7622 1.40584 8.87529 1.40584 9.99955C1.40584 11.1238 1.62882 12.2369 2.06187 13.2744C2.49492 14.3119 3.12944 15.2532 3.92871 16.0439C4.72798 16.8345 5.67612 17.4588 6.71827 17.8806C7.76041 18.3023 8.87586 18.5132 10 18.501C12.2321 18.4668 14.3611 17.5561 15.9274 15.9656C17.4937 14.3751 18.3717 12.2323 18.3717 10C18.3717 7.76776 17.4937 5.62503 15.9274 4.0345C14.3611 2.44398 12.2321 1.53228 10 1.49805ZM6.46205 12.783C6.8828 13.3191 7.42 13.7523 8.03298 14.0499C8.64595 14.3476 9.31863 14.5019 10 14.501C10.6806 14.5018 11.3525 14.3479 11.9649 14.051C12.5772 13.7541 13.1142 13.3219 13.535 12.787C13.6584 12.631 13.8387 12.5303 14.0362 12.5071C14.2338 12.4839 14.4325 12.5402 14.5885 12.6635C14.7446 12.7869 14.8453 12.9672 14.8685 13.1647C14.8916 13.3623 14.8354 13.561 14.712 13.717C14.1508 14.4296 13.435 15.0055 12.6188 15.4011C11.8026 15.7968 10.9071 16.0019 10 16.001C9.0918 16.0018 8.19528 15.796 7.37826 15.3993C6.56124 15.0026 5.84512 14.4253 5.28405 13.711C5.16624 13.5544 5.11444 13.3579 5.13972 13.1635C5.16501 12.9691 5.26538 12.7924 5.41934 12.6711C5.5733 12.5498 5.76863 12.4936 5.96351 12.5145C6.15839 12.5355 6.33734 12.6318 6.46205 12.783ZM7.00005 6.74905C7.16711 6.74432 7.33342 6.77314 7.48915 6.83381C7.64488 6.89448 7.78686 6.98576 7.90669 7.10225C8.02653 7.21875 8.12179 7.35809 8.18684 7.51204C8.25188 7.66599 8.2854 7.83142 8.2854 7.99855C8.2854 8.16568 8.25188 8.33111 8.18684 8.48506C8.12179 8.63901 8.02653 8.77835 7.90669 8.89484C7.78686 9.01134 7.64488 9.10262 7.48915 9.16328C7.33342 9.22395 7.16711 9.25277 7.00005 9.24805C6.67478 9.23884 6.36592 9.10317 6.1391 8.86984C5.91229 8.63652 5.7854 8.32395 5.7854 7.99855C5.7854 7.67315 5.91229 7.36057 6.1391 7.12725C6.36592 6.89393 6.67478 6.75825 7.00005 6.74905ZM13 6.74905C13.1671 6.74432 13.3334 6.77314 13.4891 6.83381C13.6449 6.89448 13.7869 6.98576 13.9067 7.10225C14.0265 7.21875 14.1218 7.35809 14.1868 7.51204C14.2519 7.66599 14.2854 7.83142 14.2854 7.99855C14.2854 8.16568 14.2519 8.33111 14.1868 8.48506C14.1218 8.63901 14.0265 8.77835 13.9067 8.89484C13.7869 9.01134 13.6449 9.10262 13.4891 9.16328C13.3334 9.22395 13.1671 9.25277 13 9.24805C12.6748 9.23884 12.3659 9.10317 12.1391 8.86984C11.9123 8.63652 11.7854 8.32395 11.7854 7.99855C11.7854 7.67315 11.9123 7.36057 12.1391 7.12725C12.3659 6.89393 12.6748 6.75825 13 6.74905Z" fill="#707991"/>
</svg>
