<svg width="20" height="20" viewBox="0 0 20 20" fill="none" xmlns="http://www.w3.org/2000/svg">
<path d="M10.8151 10.1978L3.28308 11.4538C3.19649 11.4683 3.11522 11.5053 3.04746 11.5611C2.97971 11.6169 2.92784 11.6896 2.89708 11.7718L0.30008 18.7288C0.0520799 19.3688 0.72108 19.9788 1.33508 19.6718L19.3351 10.6718C19.4598 10.6096 19.5646 10.5138 19.6379 10.3953C19.7112 10.2768 19.75 10.1402 19.75 10.0008C19.75 9.86146 19.7112 9.72487 19.6379 9.60635C19.5646 9.48783 19.4598 9.39207 19.3351 9.32982L1.33508 0.329816C0.72108 0.0228162 0.0520799 0.633816 0.30008 1.27282L2.89808 8.22982C2.92869 8.31223 2.9805 8.38511 3.04827 8.44112C3.11604 8.49713 3.19737 8.53427 3.28408 8.54882L10.8161 9.80382C10.8624 9.81194 10.9044 9.83614 10.9347 9.87217C10.965 9.90821 10.9816 9.95376 10.9816 10.0008C10.9816 10.0479 10.965 10.0934 10.9347 10.1295C10.9044 10.1655 10.8624 10.1897 10.8161 10.1978H10.8151Z" fill="#8BABD8"/>
</svg>
