<svg width="306" height="91" viewBox="0 0 306 91" fill="none" xmlns="http://www.w3.org/2000/svg">
<path d="M24.3328 49.584V61.5839" stroke="url(#paint0_linear_933_1410)" stroke-width="7" stroke-linecap="round"/>
<path d="M44.6664 29.25V41.2499" stroke="url(#paint1_linear_933_1410)" stroke-width="7" stroke-linecap="round"/>
<path d="M24.3329 24.843C24.3329 20.0755 24.3329 17.6917 25.4145 15.7156C26.4962 13.7395 28.4723 12.5131 32.4246 10.0602L36.5912 7.47425C40.769 4.88139 42.858 3.58496 45.1661 3.58496C47.4742 3.58496 49.5632 4.88139 53.741 7.47425L57.9077 10.0602C61.86 12.5131 63.836 13.7395 64.9176 15.7156C65.9993 17.6917 65.9993 20.0755 65.9993 24.843V28.0119C65.9993 36.1385 65.9993 40.202 63.5585 42.7266C61.1179 45.2514 57.1894 45.2514 49.3327 45.2514H40.9995C33.1428 45.2514 29.2144 45.2514 26.7736 42.7266C24.3329 40.202 24.3329 36.1385 24.3329 28.0119V24.843Z" stroke="url(#paint2_linear_933_1410)" stroke-width="7"/>
<path d="M45.6664 65.658C45.6664 70.4255 45.6664 72.8093 44.5848 74.7854C43.5031 76.7615 41.527 77.9879 37.5747 80.4408L33.4081 83.0267C29.2303 85.6196 27.1413 86.916 24.8332 86.916C22.5251 86.916 20.4361 85.6196 16.2583 83.0267L12.0916 80.4408C8.13935 77.9879 6.16331 76.7615 5.08165 74.7854C3.99999 72.8093 3.99999 70.4255 3.99999 65.658V62.4891C3.99999 54.3625 3.99999 50.299 6.44081 47.7744C8.88142 45.2496 12.8099 45.2496 20.6666 45.2496H28.9998C36.8565 45.2496 40.7849 45.2496 43.2257 47.7744C45.6664 50.299 45.6664 54.3625 45.6664 62.4891V65.658Z" stroke="url(#paint3_linear_933_1410)" stroke-width="7"/>
<path d="M97.1243 33.211V29.251H116.924V33.211H109.139V60.751H104.909V33.211H97.1243ZM233.107 55.126V60.751H228.787V55.126C228.787 51.736 228.037 49.351 226.537 47.971C225.067 46.561 222.247 45.841 218.077 45.811V60.751H213.847V29.251H218.077V42.076C220.297 42.136 221.617 42.196 222.037 42.256L228.382 29.251H232.972L225.862 43.246C230.692 45.016 233.107 48.976 233.107 55.126Z" fill="#09A350"/>
<path d="M138.94 29.251H143.17V50.851C143.17 54.421 142.24 57.046 140.38 58.726C138.55 60.376 135.775 61.201 132.055 61.201C128.335 61.201 125.56 60.376 123.73 58.726C121.9 57.046 120.985 54.421 120.985 50.851V29.251H125.215V51.436C125.215 53.476 125.83 54.961 127.06 55.891C128.32 56.791 129.97 57.241 132.01 57.241C134.11 57.241 135.79 56.791 137.05 55.891C138.31 54.961 138.94 53.476 138.94 51.436V29.251ZM149.022 60.751V40.276C149.022 36.646 149.907 33.826 151.677 31.816C153.477 29.806 156.027 28.801 159.327 28.801C162.657 28.801 165.207 29.611 166.977 31.231C168.777 32.851 169.677 35.131 169.677 38.071C169.677 39.961 169.227 41.506 168.327 42.706C167.427 43.906 165.897 44.851 163.737 45.541V45.721C165.987 46.591 167.487 47.836 168.237 49.456C169.017 51.046 169.407 53.686 169.407 57.376V60.751H165.177V54.991C165.177 52.711 164.532 50.941 163.242 49.681C161.952 48.391 160.092 47.746 157.662 47.746H155.232V43.786H157.797C160.677 43.786 162.672 43.201 163.782 42.031C164.892 40.861 165.447 39.466 165.447 37.846C165.447 36.316 164.892 35.086 163.782 34.156C162.702 33.226 161.262 32.761 159.462 32.761C157.392 32.761 155.832 33.346 154.782 34.516C153.762 35.686 153.252 37.606 153.252 40.276V60.751H149.022ZM179.317 60.751H175.087V29.251H186.202C189.922 29.251 192.697 30.091 194.527 31.771C196.357 33.421 197.272 36.031 197.272 39.601V60.751H193.042V39.016C193.042 36.976 192.412 35.506 191.152 34.606C189.922 33.676 188.287 33.211 186.247 33.211H179.317V60.751ZM256.185 60.751H238.275V36.766C238.275 34.546 238.98 32.761 240.39 31.411C241.35 30.511 242.43 29.926 243.63 29.656C244.83 29.386 246.3 29.251 248.04 29.251H256.185V33.211H247.455C244.155 33.211 242.505 34.591 242.505 37.351V42.481H252.9V46.441H242.505V56.791H256.185V60.751ZM280.611 29.251V31.501C280.611 35.161 279.921 38.521 278.541 41.581C277.191 44.611 275.211 46.921 272.601 48.511V60.751H268.371V48.601C265.761 47.041 263.751 44.776 262.341 41.806C260.931 38.806 260.226 35.506 260.226 31.906V29.251H264.546V31.501C264.546 34.591 264.981 37.246 265.851 39.466C266.751 41.656 268.296 43.456 270.486 44.866C274.416 42.256 276.381 37.801 276.381 31.501V29.251H280.611ZM301.67 29.251V33.211H293.705C290.675 33.211 289.16 34.441 289.16 36.901C289.16 38.221 289.82 39.346 291.14 40.276C292.49 41.176 294.305 42.046 296.585 42.886C297.605 43.276 298.475 43.681 299.195 44.101C299.915 44.491 300.635 45.016 301.355 45.676C302.075 46.336 302.615 47.191 302.975 48.241C303.335 49.261 303.515 50.446 303.515 51.796C303.515 53.296 303.2 54.646 302.57 55.846C301.94 57.016 301.13 57.946 300.14 58.636C299.15 59.296 298.13 59.806 297.08 60.166C296.06 60.496 295.055 60.676 294.065 60.706C293.645 60.736 293.045 60.751 292.265 60.751H285.245V56.791H292.13C294.17 56.791 295.835 56.371 297.125 55.531C298.415 54.661 299.06 53.401 299.06 51.751C299.06 50.941 298.88 50.236 298.52 49.636C298.16 49.006 297.635 48.466 296.945 48.016C296.285 47.566 295.595 47.176 294.875 46.846C294.185 46.516 293.345 46.171 292.355 45.811C292.085 45.721 291.875 45.646 291.725 45.586C287.015 43.786 284.66 40.846 284.66 36.766C284.66 34.246 285.47 32.371 287.09 31.141C288.71 29.881 290.825 29.251 293.435 29.251H301.67Z" fill="white"/>
<defs>
<linearGradient id="paint0_linear_933_1410" x1="24.4078" y1="49.584" x2="24.4078" y2="61.5839" gradientUnits="userSpaceOnUse">
<stop stop-color="#09A350"/>
<stop offset="0.536458" stop-color="#57FFA5"/>
<stop offset="0.953125" stop-color="#09A350"/>
</linearGradient>
<linearGradient id="paint1_linear_933_1410" x1="44.8331" y1="29.25" x2="44.8331" y2="41.2499" gradientUnits="userSpaceOnUse">
<stop stop-color="#09A350"/>
<stop offset="0.536458" stop-color="#57FFA5"/>
<stop offset="0.953125" stop-color="#09A350"/>
</linearGradient>
<linearGradient id="paint2_linear_933_1410" x1="45.1661" y1="3.58496" x2="45.1661" y2="45.2514" gradientUnits="userSpaceOnUse">
<stop stop-color="#09A350"/>
<stop offset="0.536458" stop-color="#57FFA5"/>
<stop offset="0.953125" stop-color="#09A350"/>
</linearGradient>
<linearGradient id="paint3_linear_933_1410" x1="24.8332" y1="86.916" x2="24.8332" y2="45.2496" gradientUnits="userSpaceOnUse">
<stop stop-color="#09A350"/>
<stop offset="0.536458" stop-color="#57FFA5"/>
<stop offset="0.953125" stop-color="#09A350"/>
</linearGradient>
</defs>
</svg>
