<svg width="29" height="27" viewBox="0 0 29 27" fill="none" xmlns="http://www.w3.org/2000/svg">
<path d="M8.94444 12.147H8.95833M14.5 12.147H14.5139M20.0556 12.147H20.0694M27 24.647L22.3829 22.3384C22.0329 22.1634 21.8579 22.0759 21.6744 22.0142C21.5117 21.9595 21.344 21.9199 21.1739 21.896C20.9822 21.8692 20.7865 21.8692 20.3953 21.8692H6.44444C4.88874 21.8692 4.11089 21.8692 3.51669 21.5665C2.99401 21.3002 2.56907 20.8752 2.30276 20.3526C2 19.7584 2 18.9805 2 17.4248V6.86925C2 5.31354 2 4.53569 2.30276 3.9415C2.56907 3.41882 2.99401 2.99387 3.51669 2.72757C4.11089 2.4248 4.88875 2.4248 6.44444 2.4248H22.5556C24.1112 2.4248 24.8892 2.4248 25.4833 2.72757C26.006 2.99387 26.431 3.41882 26.6972 3.9415C27 4.53569 27 5.31355 27 6.86925V24.647Z" stroke="white" stroke-width="3" stroke-linecap="round" stroke-linejoin="round"/>
</svg>
