<svg width="19" height="19" viewBox="0 0 19 19" fill="none" xmlns="http://www.w3.org/2000/svg">
<path d="M8.00009 0.5C9.39807 0.499944 10.7682 0.890614 11.956 1.62792C13.1437 2.36523 14.1017 3.41983 14.7219 4.6727C15.3421 5.92558 15.5998 7.32686 15.4659 8.71841C15.332 10.11 14.8118 11.4364 13.9641 12.548L18.7071 17.293C18.8864 17.473 18.9906 17.7144 18.9983 17.9684C19.0061 18.2223 18.9169 18.4697 18.7488 18.6603C18.5808 18.8508 18.3465 18.9703 18.0936 18.9944C17.8407 19.0185 17.5881 18.9454 17.3871 18.79L17.2931 18.707L12.5481 13.964C11.6011 14.6861 10.4958 15.1723 9.32353 15.3824C8.15132 15.5925 6.94592 15.5204 5.80709 15.1721C4.66826 14.8238 3.62874 14.2094 2.77455 13.3795C1.92035 12.5497 1.27604 11.5285 0.894921 10.4002C0.513805 9.27192 0.406844 8.06912 0.582888 6.89131C0.758932 5.7135 1.21292 4.59454 1.90729 3.62703C2.60165 2.65951 3.51644 1.87126 4.57594 1.32749C5.63544 0.783715 6.8092 0.500063 8.00009 0.5ZM8.00009 2.5C6.5414 2.5 5.14246 3.07946 4.11101 4.11091C3.07956 5.14236 2.50009 6.54131 2.50009 8C2.50009 9.45869 3.07956 10.8576 4.11101 11.8891C5.14246 12.9205 6.5414 13.5 8.00009 13.5C9.45878 13.5 10.8577 12.9205 11.8892 11.8891C12.9206 10.8576 13.5001 9.45869 13.5001 8C13.5001 6.54131 12.9206 5.14236 11.8892 4.11091C10.8577 3.07946 9.45878 2.5 8.00009 2.5Z" fill="#707991"/>
</svg>
