<svg width="36" height="43" viewBox="0 0 36 43" fill="none" xmlns="http://www.w3.org/2000/svg">
<path d="M24.3926 11.4866L23.9534 11.0433L23.4376 11.3945L13.6215 18.0778L13.2103 18.3578L13.3083 18.8455C13.3893 19.2485 13.4319 19.6649 13.4319 20.0905C13.4319 20.9333 13.2653 21.7376 12.964 22.4726L12.7295 23.0445L13.2461 23.3839L24.0095 30.4556L24.4688 30.7573L24.8949 30.4104C25.9877 29.5206 27.3848 28.9852 28.9091 28.9852C32.4142 28.9852 35.25 31.813 35.25 35.2942C35.25 38.7751 32.4142 41.6029 28.9091 41.6029C25.4039 41.6029 22.5681 38.7751 22.5681 35.2942C22.5681 34.381 22.7634 33.5132 23.114 32.7299L23.3749 32.1472L22.8413 31.7967L12.1649 24.7822L11.69 24.4702L11.2611 24.8429C10.147 25.8111 8.68881 26.3993 7.0909 26.3993C3.58571 26.3993 0.75 23.5715 0.75 20.0905C0.75 16.6094 3.58572 13.7817 7.0909 13.7817C9.10559 13.7817 10.8978 14.7154 12.0592 16.1706L12.4929 16.7139L13.0675 16.3227L22.5809 9.8453L23.0455 9.52903L22.8724 8.99438C22.6749 8.38429 22.5681 7.73373 22.5681 7.05882C22.5681 3.57776 25.4039 0.75 28.9091 0.75C32.4142 0.75 35.25 3.57776 35.25 7.05882C35.25 10.5399 32.4142 13.3677 28.9091 13.3677C27.1396 13.3677 25.5421 12.6471 24.3926 11.4866Z" fill="black" fill-opacity="0.15" stroke="white" stroke-width="1.5"/>
</svg>
