<svg width="24" height="16" viewBox="0 0 24 16" fill="none" xmlns="http://www.w3.org/2000/svg">
<path d="M17.3333 5.33334L20.7691 3.2719C21.8265 2.63737 22.3553 2.32012 22.7904 2.36068C23.1697 2.39604 23.5159 2.592 23.7413 2.89911C24 3.25131 24 3.86793 24 5.1012V10.8988C24 12.132 24 12.7487 23.7413 13.1009C23.5159 13.408 23.1697 13.604 22.7904 13.6393C22.3553 13.6799 21.8265 13.3627 20.7691 12.7281L17.3333 10.6667M4.26667 16H13.0667C14.5601 16 15.3069 16 15.8773 15.7093C16.3791 15.4537 16.7871 15.0457 17.0427 14.544C17.3333 13.9736 17.3333 13.2268 17.3333 11.7333V4.26667C17.3333 2.7732 17.3333 2.02645 17.0427 1.45603C16.7871 0.954254 16.3791 0.546307 15.8773 0.290653C15.3069 -9.93411e-08 14.5601 0 13.0667 0H4.26667C2.7732 0 2.02645 -9.93411e-08 1.45603 0.290653C0.954253 0.546307 0.546307 0.954254 0.290653 1.45603C-9.93411e-08 2.02645 0 2.77319 0 4.26667V11.7333C0 13.2268 -9.93411e-08 13.9736 0.290653 14.544C0.546307 15.0457 0.954253 15.4537 1.45603 15.7093C2.02645 16 2.77319 16 4.26667 16Z" fill="#707991"/>
</svg>
