<svg width="30" height="22" viewBox="0 0 30 22" fill="none" xmlns="http://www.w3.org/2000/svg">
<path d="M20.7778 8.10661L24.4998 5.75827C25.6454 5.03544 26.2183 4.67403 26.6896 4.72024C27.1005 4.76052 27.4755 4.98375 27.7198 5.3336C28 5.73481 28 6.43726 28 7.84217V14.4467C28 15.8515 28 16.554 27.7198 16.9553C27.4755 17.3051 27.1005 17.5283 26.6896 17.5686C26.2183 17.6148 25.6454 17.2534 24.4998 16.5306L20.7778 14.1822M6.62222 20.2578H16.1556C17.7735 20.2578 18.5825 20.2578 19.2004 19.9267C19.744 19.6355 20.186 19.1707 20.4629 18.5992C20.7778 17.9494 20.7778 17.0987 20.7778 15.3973V6.89149C20.7778 5.19017 20.7778 4.33949 20.4629 3.68968C20.186 3.11807 19.744 2.65334 19.2004 2.36211C18.5825 2.03101 17.7735 2.03101 16.1556 2.03101H6.62222C5.0043 2.03101 4.19532 2.03101 3.57736 2.36211C3.03377 2.65334 2.59183 3.11807 2.31487 3.68968C2 4.33949 2 5.19015 2 6.89149V15.3973C2 17.0987 2 17.9494 2.31487 18.5992C2.59183 19.1707 3.03377 19.6355 3.57736 19.9267C4.19532 20.2578 5.00429 20.2578 6.62222 20.2578Z" stroke="#09A350" stroke-width="3" stroke-linecap="round" stroke-linejoin="round"/>
</svg>
