<svg width="14" height="17" viewBox="0 0 14 17" fill="none" xmlns="http://www.w3.org/2000/svg">
<path d="M11.9969 10.1339L12.7438 8.17763C12.8687 7.84951 12.6281 7.4995 12.275 7.4995H10.4469C10.7906 6.90888 11.0031 6.23075 11.0031 5.49951V5.49017C12.2281 5.24643 13.0031 4.8933 13.0031 4.49955C13.0031 4.08393 12.15 3.71519 10.8125 3.4683C10.525 2.4433 9.96875 1.41205 9.54375 0.8808C9.24688 0.50893 8.73438 0.393307 8.30937 0.605808L7.44688 1.03705C7.16563 1.17768 6.83438 1.17768 6.55313 1.03705L5.69063 0.605808C5.26563 0.393307 4.75313 0.508877 4.45625 0.8808C4.03438 1.41205 3.475 2.4433 3.1875 3.4683C1.85312 3.71519 1 4.08393 1 4.49955C1 4.8933 1.775 5.24643 3 5.49017V5.49951C3 6.23075 3.2125 6.90888 3.55625 7.4995H1.75938C1.4 7.4995 1.15938 7.86512 1.3 8.19638L2.10625 10.0776C0.853125 10.8058 0 12.1464 0 13.6995V15.0995C0 15.8714 0.628125 16.4995 1.4 16.4995H12.6C13.3719 16.4995 14 15.8714 14 15.0995V13.6995C14 12.187 13.1938 10.8745 11.9969 10.1339ZM5.5 15.4995L4.2 9.4995L5.75 10.4995L6.5 11.7495L5.5 15.4995ZM8.5 15.4995L7.5 11.7495L8.25 10.4995L9.8 9.4995L8.5 15.4995ZM9.80313 6.17138C9.68125 6.54325 9.58438 6.94012 9.2875 7.21512C8.97188 7.50576 7.7875 7.91513 7.2875 6.43388C7.2 6.17138 6.80625 6.17138 6.71563 6.43388C6.18438 8.00262 4.96563 7.44637 4.71562 7.21512C4.41875 6.94012 4.31875 6.54325 4.2 6.17138C4.175 6.09325 4.00313 5.99325 4.00313 5.99012V5.65262C4.8875 5.76515 5.90937 5.83387 7.00313 5.83387C8.09688 5.83387 9.11875 5.76827 10.0031 5.65262V5.99012C10 5.99279 9.82813 6.09012 9.80313 6.17138Z" fill="black"/>
</svg>
