<svg width="10" height="15" viewBox="0 0 10 15" fill="none" xmlns="http://www.w3.org/2000/svg">
<path fill-rule="evenodd" clip-rule="evenodd" d="M7.5 1.66667C7.03975 1.66667 6.66667 2.03977 6.66667 2.5C6.66667 2.73035 6.759 2.93754 6.91075 3.08926C7.0625 3.24097 7.26967 3.33333 7.5 3.33333C7.96025 3.33333 8.33333 2.96023 8.33333 2.5C8.33333 2.03977 7.96025 1.66667 7.5 1.66667ZM5 2.5C5 1.11929 6.11925 0 7.5 0C8.88075 0 10 1.11929 10 2.5C10 3.88071 8.88075 5 7.5 5C7.11433 5 6.74867 4.91233 6.42233 4.7562L4.75617 6.42233C4.91233 6.74867 5 7.11433 5 7.5C5 7.88567 4.91233 8.25133 4.75617 8.57767L6.42233 10.2438C6.74867 10.0877 7.11433 10 7.5 10C8.88075 10 10 11.1192 10 12.5C10 13.8807 8.88075 15 7.5 15C6.11925 15 5 13.8807 5 12.5C5 12.1143 5.08767 11.7487 5.24383 11.4223L3.57769 9.75617C3.25131 9.91233 2.88564 10 2.5 10C1.11929 10 0 8.88075 0 7.5C0 6.11925 1.11929 5 2.5 5C2.88564 5 3.25131 5.08767 3.57769 5.2438L5.24383 3.57769C5.08767 3.25131 5 2.88564 5 2.5ZM2.5 6.66667C2.03977 6.66667 1.66667 7.03975 1.66667 7.5C1.66667 7.96025 2.03977 8.33333 2.5 8.33333C2.73035 8.33333 2.93754 8.241 3.08926 8.08925C3.24098 7.9375 3.33333 7.73033 3.33333 7.5C3.33333 7.26967 3.24098 7.0625 3.08926 6.91075C2.93754 6.759 2.73035 6.66667 2.5 6.66667ZM7.5 11.6667C7.26967 11.6667 7.0625 11.759 6.91075 11.9107C6.759 12.0625 6.66667 12.2697 6.66667 12.5C6.66667 12.9602 7.03975 13.3333 7.5 13.3333C7.96025 13.3333 8.33333 12.9602 8.33333 12.5C8.33333 12.0398 7.96025 11.6667 7.5 11.6667Z" fill="black"/>
</svg>
