<svg width="16" height="17" viewBox="0 0 16 17" fill="none" xmlns="http://www.w3.org/2000/svg">
<path d="M8 0.5C3.58768 0.5 0 4.08768 0 8.5C0 12.9123 3.58768 16.5 8 16.5C12.4123 16.5 16 12.9123 16 8.5C16 4.08768 12.4103 0.5 8 0.5ZM12.8297 13.2483C12.677 12.4236 12.3166 11.6438 11.775 10.9922C11.7238 10.9306 11.6609 10.8796 11.5899 10.8423C11.519 10.805 11.4413 10.7821 11.3615 10.7749C11.2816 10.7677 11.2011 10.7764 11.1246 10.8004C11.0482 10.8244 10.9772 10.8633 10.9158 10.9149C10.8541 10.9661 10.8031 11.029 10.7658 11.0999C10.7285 11.1709 10.7056 11.2486 10.6984 11.3284C10.6912 11.4083 10.6999 11.4887 10.7239 11.5652C10.7479 11.6417 10.7868 11.7127 10.8384 11.7741C11.3881 12.4359 11.6915 13.2727 11.6915 14.134C11.6915 14.1483 11.6956 14.1625 11.6956 14.1768C10.6327 14.8711 9.36421 15.2763 8 15.2763C6.63579 15.2763 5.36931 14.8711 4.3044 14.1768C4.3044 14.1625 4.30848 14.1503 4.30848 14.134C4.30848 12.0999 5.96386 10.4425 8 10.4425C9.90176 10.4425 11.4492 8.89501 11.4492 6.99326C11.4492 5.0915 9.90176 3.54403 8 3.54403C6.09824 3.54403 4.55078 5.0915 4.55078 6.99326C4.55078 8.09481 5.06999 9.07419 5.8763 9.7054C4.48562 10.3753 3.45737 11.6825 3.17027 13.2462C1.96488 12.0246 1.22168 10.3468 1.22168 8.5C1.22168 4.76164 4.26164 1.72168 8 1.72168C11.7384 1.72168 14.7783 4.76164 14.7783 8.5C14.7763 10.3468 14.0331 12.0246 12.8297 13.2483ZM5.77042 6.99529C5.77042 5.7675 6.77017 4.76775 7.99796 4.76775C9.22576 4.76775 10.2255 5.7675 10.2255 6.99529C10.2255 8.22512 9.22576 9.22283 7.99796 9.22283C6.77017 9.22283 5.77042 8.22308 5.77042 6.99529Z" fill="black"/>
</svg>
