<svg width="43" height="38" viewBox="0 0 43 38" fill="none" xmlns="http://www.w3.org/2000/svg">
<path d="M11.9444 32.5864C10.0333 32.5864 8.12222 30.9602 7.16667 30.2632C2.38889 27.0109 0.955556 25.8493 0 25.1524V34.9095C0 36.1923 1.06977 37.2326 2.38889 37.2326H21.5C22.8191 37.2326 23.8889 36.1923 23.8889 34.9095V25.1524C22.9333 25.8493 21.5 27.0109 16.7222 30.2632C15.7667 30.9602 13.8556 32.5864 11.9444 32.5864ZM21.5 18.6476H2.38889C1.06977 18.6476 0 19.6879 0 20.9707V22.1323C1.91111 23.5262 1.67222 23.5262 8.6 28.4047C9.31667 28.8694 10.75 30.2632 11.9444 30.2632C13.1389 30.2632 14.5722 28.8694 15.2889 28.6371C22.2167 23.7585 21.9778 23.7585 23.8889 22.3646V20.9707C23.8889 19.6879 22.8191 18.6476 21.5 18.6476ZM40.6111 11.6782H16.7222C15.4031 11.6782 14.3333 12.7186 14.3333 14.0014V16.3245H21.5C23.9792 16.3245 26.0232 18.1699 26.2561 20.5221L26.2778 20.5061V30.2632H40.6111C41.9302 30.2632 43 29.2229 43 27.9401V14.0014C43 12.7186 41.9302 11.6782 40.6111 11.6782ZM38.2222 20.9707H33.4444V16.3245H38.2222V20.9707ZM11.9444 14.0014C11.9444 11.4394 14.0877 9.35512 16.7222 9.35512H33.4444V2.38575C33.4444 1.10295 32.3747 0.0626221 31.0556 0.0626221H7.16667C5.84755 0.0626221 4.77778 1.10295 4.77778 2.38575V16.3245H11.9444V14.0014Z" fill="black"/>
</svg>
