<svg width="27" height="28" viewBox="0 0 27 28" fill="none" xmlns="http://www.w3.org/2000/svg">
<path d="M27 14.0002C27 6.54435 20.9559 0.500202 13.5 0.500202C6.04415 0.500202 0 6.54435 0 14.0002C0 20.7384 4.93676 26.3234 11.3906 27.3362V17.9025H7.96289V14.0002H11.3906V11.026C11.3906 7.64254 13.4061 5.77364 16.4898 5.77364C17.9668 5.77364 19.5117 6.03731 19.5117 6.03731V9.35957H17.8094C16.1324 9.35957 15.6094 10.4002 15.6094 11.4678V14.0002H19.3535L18.755 17.9025H15.6094V27.3362C22.0632 26.3234 27 20.7384 27 14.0002Z" fill="#09A350"/>
<path d="M18.755 17.9022L19.3535 13.9999H15.6094V11.4675C15.6094 10.3999 16.1324 9.35925 17.8094 9.35925H19.5117V6.03699C19.5117 6.03699 17.9668 5.77332 16.4898 5.77332C13.4061 5.77332 11.3906 7.64222 11.3906 11.0257V13.9999H7.96289V17.9022H11.3906V27.3359C12.0779 27.4437 12.7824 27.4999 13.5 27.4999C14.2176 27.4999 14.9221 27.4437 15.6094 27.3359V17.9022H18.755Z" fill="white"/>
</svg>
