<svg width="10" height="10" viewBox="0 0 10 10" fill="none" xmlns="http://www.w3.org/2000/svg">
<path d="M5 0C2.23857 0 0 2.23857 0 5C0 7.76143 2.23857 10 5 10C7.76143 10 10 7.76143 10 5C10 2.23857 7.76143 0 5 0ZM5 1.68104C5.55592 1.68104 6.0066 2.1317 6.0066 2.68764C6.0066 3.24357 5.55594 3.69424 5 3.69424C4.44408 3.69424 3.9934 3.24357 3.9934 2.68764C3.9934 2.1317 4.44408 1.68104 5 1.68104ZM6.06428 8.31896H3.93574V7.46754H4.63236V5.39705H4.20664V4.54562H5.48377V4.62303V5.39705V7.46754H6.06428V8.31896Z" fill="#A7A7A7"/>
</svg>
