<svg width="133" height="192" viewBox="0 0 133 192" fill="none" xmlns="http://www.w3.org/2000/svg">
<path d="M45.8674 104.948V130.498" stroke="url(#paint0_linear_933_15889)" stroke-width="14" stroke-linecap="round"/>
<path d="M84.7515 61.6523V87.2028" stroke="url(#paint1_linear_933_15889)" stroke-width="14" stroke-linecap="round"/>
<path d="M45.8674 52.2629C45.8674 42.1119 45.8674 37.0363 47.9356 32.8287C50.0037 28.6212 53.782 26.0098 61.3387 20.7872L69.3053 15.2811C77.2932 9.76038 81.2873 7 85.7004 7C90.1135 7 94.1075 9.76038 102.096 15.2811L110.062 20.7871C117.619 26.0098 121.397 28.6212 123.465 32.8287C125.533 37.0363 125.533 42.1119 125.533 52.2629V59.0102C125.533 76.3136 125.533 84.9657 120.867 90.341C116.2 95.7168 108.689 95.7168 93.667 95.7168H77.7338C62.7118 95.7168 55.2009 95.7168 50.5341 90.341C45.8674 84.9657 45.8674 76.3136 45.8674 59.0102V52.2629Z" stroke="url(#paint2_linear_933_15889)" stroke-width="14"/>
<path d="M86.666 139.179C86.666 149.33 86.666 154.405 84.5979 158.613C82.5298 162.82 78.7514 165.432 71.1948 170.654L63.2282 176.16C55.2402 181.681 51.2461 184.441 46.8331 184.441C42.42 184.441 38.4259 181.681 30.4378 176.16L22.4712 170.654C14.9145 165.432 11.1363 162.82 9.06821 158.613C7.00008 154.405 7.00009 149.33 7.00009 139.179V132.431C7.00009 115.128 7.00009 106.476 11.6669 101.1C16.3333 95.7246 23.8447 95.7246 38.8665 95.7246H54.7996C69.8216 95.7246 77.3326 95.7246 81.9993 101.1C86.666 106.476 86.666 115.128 86.666 132.431V139.179Z" stroke="url(#paint3_linear_933_15889)" stroke-width="14"/>
<defs>
<linearGradient id="paint0_linear_933_15889" x1="46.0104" y1="104.948" x2="46.0104" y2="130.498" gradientUnits="userSpaceOnUse">
<stop stop-color="#09A350"/>
<stop offset="0.536458" stop-color="#57FFA5"/>
<stop offset="0.953125" stop-color="#09A350"/>
</linearGradient>
<linearGradient id="paint1_linear_933_15889" x1="85.0698" y1="61.6523" x2="85.0698" y2="87.2028" gradientUnits="userSpaceOnUse">
<stop stop-color="#09A350"/>
<stop offset="0.536458" stop-color="#57FFA5"/>
<stop offset="0.953125" stop-color="#09A350"/>
</linearGradient>
<linearGradient id="paint2_linear_933_15889" x1="85.7004" y1="7" x2="85.7004" y2="95.7168" gradientUnits="userSpaceOnUse">
<stop stop-color="#09A350"/>
<stop offset="0.536458" stop-color="#57FFA5"/>
<stop offset="0.953125" stop-color="#09A350"/>
</linearGradient>
<linearGradient id="paint3_linear_933_15889" x1="46.833" y1="184.441" x2="46.833" y2="95.7246" gradientUnits="userSpaceOnUse">
<stop stop-color="#09A350"/>
<stop offset="0.536458" stop-color="#57FFA5"/>
<stop offset="0.953125" stop-color="#09A350"/>
</linearGradient>
</defs>
</svg>
