<svg width="29" height="29" viewBox="0 0 29 29" fill="none" xmlns="http://www.w3.org/2000/svg">
<path fill-rule="evenodd" clip-rule="evenodd" d="M18.1253 12.6875C19.0362 12.6874 19.9227 12.3933 20.653 11.8491C21.3834 11.3048 21.9187 10.5394 22.1793 9.66667H25.3753C25.6958 9.66667 26.0032 9.53937 26.2298 9.31276C26.4564 9.08615 26.5837 8.77881 26.5837 8.45834C26.5837 8.13787 26.4564 7.83053 26.2298 7.60392C26.0032 7.37731 25.6958 7.25001 25.3753 7.25001H22.1793C21.9183 6.37769 21.3828 5.61283 20.6525 5.06905C19.9221 4.52527 19.0359 4.23157 18.1253 4.23157C17.2148 4.23157 16.3285 4.52527 15.5982 5.06905C14.8679 5.61283 14.3324 6.37769 14.0714 7.25001H3.62533C3.30486 7.25001 2.99751 7.37731 2.7709 7.60392C2.5443 7.83053 2.41699 8.13787 2.41699 8.45834C2.41699 8.77881 2.5443 9.08615 2.7709 9.31276C2.99751 9.53937 3.30486 9.66667 3.62533 9.66667H14.0714C14.332 10.5394 14.8673 11.3048 15.5976 11.8491C16.328 12.3933 17.2145 12.6874 18.1253 12.6875ZM3.62533 19.3333C3.30486 19.3333 2.99751 19.4606 2.7709 19.6873C2.5443 19.9139 2.41699 20.2212 2.41699 20.5417C2.41699 20.8621 2.5443 21.1695 2.7709 21.3961C2.99751 21.6227 3.30486 21.75 3.62533 21.75H6.2172C6.47824 22.6223 7.0137 23.3872 7.74403 23.931C8.47437 24.4747 9.36062 24.7684 10.2712 24.7684C11.1817 24.7684 12.068 24.4747 12.7983 23.931C13.5286 23.3872 14.0641 22.6223 14.3251 21.75H25.3753C25.6958 21.75 26.0032 21.6227 26.2298 21.3961C26.4564 21.1695 26.5837 20.8621 26.5837 20.5417C26.5837 20.2212 26.4564 19.9139 26.2298 19.6873C26.0032 19.4606 25.6958 19.3333 25.3753 19.3333H14.3251C14.0641 18.461 13.5286 17.6962 12.7983 17.1524C12.068 16.6086 11.1817 16.3149 10.2712 16.3149C9.36062 16.3149 8.47437 16.6086 7.74403 17.1524C7.0137 17.6962 6.47824 18.461 6.2172 19.3333H3.62533Z" fill="#EBEBEB"/>
</svg>
